<svg xmlns="http://www.w3.org/2000/svg" width="301" height="237.822" viewBox="0 0 301 237.822">
  <g id="Building_blocks-bro" data-name="Building blocks-bro" transform="translate(0.5)">
    <g id="background-simple--inject-104" transform="translate(10.978 0)">
      <path id="Tracé_1700" data-name="Tracé 1700" d="M60.947,170.324c5.717-21.9,15.229-42.336,25.177-56.351C110.066,80.3,165.673,65.5,204.079,79.591c32.731,12.021,44.195,48.361,72.788,65.749,26.307,16.016,50.176,29.065,59.374,59.588,19.439,64.484-57.416,115.889-114.846,99.538-18.124-5.167-33.446-16.023-52.778-16.094-39.221-.136-53.042,5.246-84.766-15.944C52.586,251.574,50.942,208.687,60.947,170.324Z" transform="translate(-55.488 -74.283)" fill="#c2a3cc"/>
      <path id="Tracé_1701" data-name="Tracé 1701" d="M60.947,170.324c5.717-21.9,15.229-42.336,25.177-56.351C110.066,80.3,165.673,65.5,204.079,79.591c32.731,12.021,44.195,48.361,72.788,65.749,26.307,16.016,50.176,29.065,59.374,59.588,19.439,64.484-57.416,115.889-114.846,99.538-18.124-5.167-33.446-16.023-52.778-16.094-39.221-.136-53.042,5.246-84.766-15.944C52.586,251.574,50.942,208.687,60.947,170.324Z" transform="translate(-55.488 -74.283)" fill="#fff" opacity="0.8"/>
    </g>
    <g id="Clouds--inject-104" transform="translate(16.807 20.063)">
      <path id="Tracé_1702" data-name="Tracé 1702" d="M376.688,252.929c2.144-1.172,3.137-.193,3.916-1.172s-2.144-3.523,3.723-6.075c0,0,.393-5.481,8.419-5.674s5.882,5.481,8.033,6.854,2.744-.786,4.9.586,1.172,4.109,2.937,4.5,4.116-1.758,6.268-.393,2.144,2.551,3.13,2.551,2.937-.786,4.116,0,2.544,1.758,2.544,1.758H375.123S374.537,254.108,376.688,252.929Z" transform="translate(-375.05 -141.633)" fill="#c2a3cc"/>
      <path id="Tracé_1703" data-name="Tracé 1703" d="M376.688,252.929c2.144-1.172,3.137-.193,3.916-1.172s-2.144-3.523,3.723-6.075c0,0,.393-5.481,8.419-5.674s5.882,5.481,8.033,6.854,2.744-.786,4.9.586,1.172,4.109,2.937,4.5,4.116-1.758,6.268-.393,2.144,2.551,3.13,2.551,2.937-.786,4.116,0,2.544,1.758,2.544,1.758H375.123S374.537,254.108,376.688,252.929Z" transform="translate(-375.05 -141.633)" fill="#fff" opacity="0.5"/>
      <path id="Tracé_1704" data-name="Tracé 1704" d="M316.024,132.914c2.987-1.629,4.338-.272,5.424-1.629s-2.98-4.853,5.167-8.426c0,0,.536-7.6,11.663-7.861s8.14,7.6,11.127,9.5,3.795-1.086,6.782.815,1.629,5.717,4.066,6.239,5.717-2.444,8.683-.543,2.987,3.53,4.345,3.53,4.066-1.086,5.717,0,3.523,2.437,3.523,2.437H313.88S313.036,134.543,316.024,132.914Z" transform="translate(-289.108 -105.962)" fill="#c2a3cc"/>
      <path id="Tracé_1705" data-name="Tracé 1705" d="M316.024,132.914c2.987-1.629,4.338-.272,5.424-1.629s-2.98-4.853,5.167-8.426c0,0,.536-7.6,11.663-7.861s8.14,7.6,11.127,9.5,3.795-1.086,6.782.815,1.629,5.717,4.066,6.239,5.717-2.444,8.683-.543,2.987,3.53,4.345,3.53,4.066-1.086,5.717,0,3.523,2.437,3.523,2.437H313.88S313.036,134.543,316.024,132.914Z" transform="translate(-289.108 -105.962)" fill="#fff" opacity="0.5"/>
      <path id="Tracé_1706" data-name="Tracé 1706" d="M210.259,127.637c4.209-2.3,6.125-.386,7.654-2.3s-4.209-6.889,7.275-11.87c0,0,.765-10.72,16.437-11.1s11.485,10.72,15.723,13.4,5.36-1.529,9.569,1.151,2.3,8.04,5.717,8.8,8.04-3.445,12.249-.765,4.216,5,6.132,5,5.717-1.529,8.04,0,5,3.445,5,3.445H207.193S206.043,129.931,210.259,127.637Z" transform="translate(-134.375 -102.357)" fill="#c2a3cc"/>
      <path id="Tracé_1707" data-name="Tracé 1707" d="M210.259,127.637c4.209-2.3,6.125-.386,7.654-2.3s-4.209-6.889,7.275-11.87c0,0,.765-10.72,16.437-11.1s11.485,10.72,15.723,13.4,5.36-1.529,9.569,1.151,2.3,8.04,5.717,8.8,8.04-3.445,12.249-.765,4.216,5,6.132,5,5.717-1.529,8.04,0,5,3.445,5,3.445H207.193S206.043,129.931,210.259,127.637Z" transform="translate(-134.375 -102.357)" fill="#fff" opacity="0.5"/>
    </g>
    <g id="Plants--inject-104" transform="translate(77.592 96.558)">
      <path id="Tracé_1708" data-name="Tracé 1708" d="M55.6,226.1a14.061,14.061,0,0,1-4.081.45s.622-1.894.679-2.008c.629-1.329,2.644-3.523,4.288-3.3a1.944,1.944,0,0,1,1.565,2.444A4.115,4.115,0,0,1,55.6,226.1Z" transform="translate(161.927 -212.77)" fill="#263238"/>
      <path id="Tracé_1709" data-name="Tracé 1709" d="M53.354,212.871c1.644-.179,3.573,2.073,4.188,3.416.057.114.657,2.03.622,2.03h0c.307.357.636.715.986,1.158.643.793,1.358,1.687,2.073,2.716a33.674,33.674,0,0,1,2.144,3.423,25.422,25.422,0,0,1,1.837,4.138.179.179,0,0,1,0,.05v-1.937c.193-1.429,1.429-4.166,3.037-4.467a1.944,1.944,0,0,1,2.251,1.83,4,4,0,0,1-1.565,3.059,13.539,13.539,0,0,1-3.7,1.687,34.466,34.466,0,0,1,1.079,4.474c.157.886.286,1.779.407,2.673v-.843c.193-1.429,1.429-4.166,3.037-4.467a1.951,1.951,0,0,1,2.273,1.837,4.108,4.108,0,0,1-1.565,3.052,12.851,12.851,0,0,1-3.573,1.651l.136,1.036c.2,1.658.386,3.309.622,4.924.086.572.186,1.129.286,1.687v-.715c.193-1.429,1.429-4.166,3.037-4.467a1.958,1.958,0,0,1,2.251,1.837,3.981,3.981,0,0,1-1.565,3.052,12.6,12.6,0,0,1-3.488,1.622c.121.565.243,1.136.386,1.679.107.372.179.715.307,1.1s.236.715.35,1.086c.243.679.5,1.386.758,2.044.172.457.35.893.529,1.329-.093-.565-.243-1.672-.243-1.765a7.561,7.561,0,0,1,1.058-3.709,2.915,2.915,0,0,1,0-.436,1.951,1.951,0,0,1,2.4-1.665c1.594.422,2.6,3.216,2.68,4.688,0,.086-.05,1.036-.1,1.629.079-.343.157-.679.243-1.036.164-.715.357-1.429.55-2.144.114-.357.222-.715.336-1.086s.257-.715.379-1.115c.322-.865.715-1.722,1.065-2.58a13.139,13.139,0,0,1-3.68-1.379,4.051,4.051,0,0,1-1.787-2.93,1.944,1.944,0,0,1,2.144-1.994c1.637.179,3.059,2.787,3.359,4.231,0,.093.114,1.151.157,1.729.236-.507.465-1.022.715-1.537.715-1.472,1.515-2.944,2.3-4.417.236-.45.472-.9.715-1.351a12.909,12.909,0,0,1-3.809-1.429,4.077,4.077,0,0,1-1.787-2.93,1.951,1.951,0,0,1,2.144-2c1.637.179,3.059,2.787,3.359,4.231,0,.107.157,1.637.172,2.022.522-.993,1.022-1.987,1.486-2.987a35.544,35.544,0,0,0,1.608-4.159,12.5,12.5,0,0,1-3.838-1.429,4.086,4.086,0,0,1-1.787-2.93,1.951,1.951,0,0,1,2.144-2c1.637.179,3.059,2.794,3.359,4.238,0,.114.172,1.751.179,2.051a1.124,1.124,0,0,1,.079-.25,25.012,25.012,0,0,0,.836-4.388c.093-.822.136-1.608.157-2.373a13.3,13.3,0,0,1-3.873-.979,3.931,3.931,0,0,1-2.1-2.716,1.958,1.958,0,0,1,1.88-2.215c1.651,0,3.352,2.437,3.8,3.838,0,.079.193.879.307,1.429v-1.036c0-1.243-.086-2.387-.157-3.4-.05-.572-.107-1.093-.164-1.572a13.142,13.142,0,0,1-2.973-2.637,4.048,4.048,0,0,1-.615-3.38,1.958,1.958,0,0,1,2.687-1.108c1.429.758,1.851,3.709,1.608,5.16,0,.129-.572,2.051-.6,2.037h0c.064.465.129.965.186,1.515.1,1.008.207,2.144.236,3.409a33.933,33.933,0,0,1-.093,4.038,25.578,25.578,0,0,1-.715,4.467.136.136,0,0,0,0,.05c.257-.407,1.022-1.522,1.086-1.6.965-1.115,3.48-2.7,5-2.058a1.951,1.951,0,0,1,.865,2.773,4.089,4.089,0,0,1-2.994,1.687,13.709,13.709,0,0,1-4.016-.629A34.675,34.675,0,0,1,84.7,234.84c-.357.829-.715,1.644-1.136,2.458.236-.343.45-.65.486-.715.965-1.115,3.48-2.694,5-2.051a1.951,1.951,0,0,1,.836,2.766,4.056,4.056,0,0,1-2.994,1.679,13.15,13.15,0,0,1-3.9-.593c-.157.307-.307.622-.457.929-.715,1.494-1.508,2.973-2.2,4.452-.243.522-.465,1.043-.715,1.565l.415-.6c.965-1.115,3.48-2.7,5-2.058a1.951,1.951,0,0,1,.865,2.773,4.076,4.076,0,0,1-2.994,1.687,12.541,12.541,0,0,1-3.795-.572c-.214.543-.429,1.086-.615,1.615-.114.372-.25.715-.35,1.086s-.2.715-.307,1.1c-.164.715-.343,1.429-.493,2.144-.107.479-.2.936-.293,1.429.236-.522.715-1.529.779-1.608.779-1.251,3.03-3.195,4.624-2.787a1.951,1.951,0,0,1,1.279,2.609,4.2,4.2,0,0,1-2.7,2.144,14.968,14.968,0,0,1-4.045,0c-.157.772-.3,1.515-.422,2.223-.429,2.451-.715,4.5-.865,5.946a5.467,5.467,0,0,1-.079.715h5l-1.815,2.3H70.37l-1.815-2.3h4.624c0-.072-.064-.136-.1-.214-.636-1.322-1.515-3.223-2.466-5.546-.3-.715-.607-1.522-.922-2.337a13.538,13.538,0,0,1-4.031.314,4.1,4.1,0,0,1-2.859-1.915,1.944,1.944,0,0,1,1.079-2.694c1.565-.529,3.952,1.251,4.824,2.437.05.064.529.886.815,1.429-.121-.329-.25-.65-.372-1-.25-.679-.479-1.365-.715-2.1l-.322-1.093c-.121-.357-.193-.758-.293-1.136-.214-.893-.386-1.808-.543-2.737a12.841,12.841,0,0,1-3.823.879,4.141,4.141,0,0,1-3.109-1.429A1.944,1.944,0,0,1,61,243.209c1.465-.758,4.1.636,5.138,1.672.064.064.715.893,1.086,1.358-.093-.557-.179-1.115-.25-1.679-.2-1.637-.357-3.295-.522-4.953-.043-.507-.1-1.015-.157-1.522a13.59,13.59,0,0,1-3.952.929,4.141,4.141,0,0,1-3.109-1.429,1.958,1.958,0,0,1,.65-2.859c1.472-.75,4.1.643,5.138,1.679.079.079,1.036,1.272,1.265,1.587-.114-1.108-.243-2.223-.415-3.309a34.488,34.488,0,0,0-.951-4.352,13.771,13.771,0,0,1-3.981.929,4.128,4.128,0,0,1-3.109-1.429,1.951,1.951,0,0,1,.657-2.859c1.429-.758,4.1.636,5.138,1.672.079.086,1.108,1.372,1.279,1.615a.826.826,0,0,0-.071-.25,24.949,24.949,0,0,0-1.722-4.124c-.372-.715-.772-1.429-1.179-2.065a13.191,13.191,0,0,1-3.766,1.322,4.04,4.04,0,0,1-3.252-1.108,1.944,1.944,0,0,1,.343-2.859c1.372-.915,4.138.186,5.288,1.1.064.05.643.629,1.065,1.058-.193-.293-.379-.6-.565-.879-.715-1.036-1.379-1.944-2.008-2.744-.357-.45-.715-.858-1-1.229a12.759,12.759,0,0,1-3.938-.557,4.012,4.012,0,0,1-2.373-2.48,1.951,1.951,0,0,1,1.622-2.573Zm18.16,44.059c.993,2.28,1.9,4.138,2.558,5.431.136.264.25.493.364.715h.107a6.539,6.539,0,0,1,.107-.836c.2-1.429.515-3.523,1.008-5.989.15-.779.329-1.608.522-2.458a22.322,22.322,0,0,1-2.251-1.086,14.365,14.365,0,0,1-3.287,2.144C70.934,255.565,71.227,256.28,71.513,256.93Z" transform="translate(126.246 -209.393)" fill="#263238"/>
      <path id="Tracé_1710" data-name="Tracé 1710" d="M90.986,226.01s-.522-1.922-.543-2.051c-.2-1.429.264-4.4,1.751-5.117a1.951,1.951,0,0,1,2.651,1.179,4.015,4.015,0,0,1-.715,3.359A14.085,14.085,0,0,1,90.986,226.01Z" transform="translate(97.275 -212.041)" fill="#263238"/>
      <path id="Tracé_1711" data-name="Tracé 1711" d="M283.983,235.965c-1.622.715-5.589.615-5.589.615s.85-2.594.922-2.751c.872-1.815,3.623-4.824,5.86-4.517a2.666,2.666,0,0,1,2.144,3.345C286.949,234.207,285.362,235.357,283.983,235.965Z" transform="translate(-229.506 -215.07)" fill="#c2a3cc"/>
      <path id="Tracé_1712" data-name="Tracé 1712" d="M281.639,217.889c2.244-.243,4.91,2.859,5.717,4.674.072.164.893,2.78.85,2.78h-.043c.422.479.872,1,1.351,1.587.879,1.079,1.865,2.3,2.859,3.709a48.523,48.523,0,0,1,2.944,4.7,35.3,35.3,0,0,1,2.516,5.66v.071c0-.657,0-2.508.036-2.651.257-2,1.937-5.717,4.152-6.125a2.68,2.68,0,0,1,3.087,2.516c.129,1.587-1.022,3.18-2.144,4.181-1.265,1.129-4.781,2.23-5.06,2.315a47.714,47.714,0,0,1,1.486,6.132c.214,1.208.393,2.437.557,3.659v-1.151c.257-2,1.937-5.717,4.159-6.125a2.673,2.673,0,0,1,3.08,2.516c.129,1.587-1.022,3.18-2.144,4.181s-4.117,2.015-4.91,2.265c.057.472.122.943.179,1.429.264,2.265.529,4.531.85,6.739.114.779.257,1.544.393,2.308v-1c.257-2,1.937-5.717,4.152-6.125a2.68,2.68,0,0,1,3.087,2.516c.129,1.587-1.022,3.18-2.144,4.181a16.749,16.749,0,0,1-4.774,2.223c.164.779.329,1.558.522,2.3.15.507.25,1.008.422,1.508s.322.993.486,1.487c.336.929.679,1.894,1.036,2.8.236.622.479,1.222.715,1.822-.121-.779-.329-2.3-.329-2.43a10.348,10.348,0,0,1,1.386-5.046,3.311,3.311,0,0,1,.036-.593,2.68,2.68,0,0,1,3.273-2.265c2.18.579,3.573,4.409,3.666,6.432,0,.121-.071,1.429-.136,2.23.114-.472.214-.936.336-1.429.229-.965.486-1.922.758-2.952.15-.493.3-.986.45-1.494s.35-1.015.529-1.522c.429-1.186.922-2.358,1.429-3.53-.843-.2-3.838-.965-5.038-1.887s-2.458-2.416-2.451-4.009a2.68,2.68,0,0,1,2.859-2.737c2.244.243,4.2,3.823,4.6,5.8,0,.121.157,1.572.214,2.373.322-.715.636-1.429.986-2.108,1.008-2.022,2.08-4.031,3.152-6.046.329-.622.643-1.236.965-1.858-.3-.064-3.873-.893-5.217-1.93-1.194-.915-2.466-2.416-2.451-4.009a2.68,2.68,0,0,1,2.859-2.737c2.244.243,4.2,3.823,4.6,5.8,0,.15.214,2.237.236,2.773.715-1.365,1.429-2.73,2.03-4.1a47.374,47.374,0,0,0,2.2-5.717c-.136,0-3.873-.879-5.246-1.937-1.193-.915-2.466-2.416-2.451-4.009a2.666,2.666,0,0,1,2.859-2.737c2.244.243,4.188,3.816,4.6,5.8.036.157.236,2.4.243,2.809a1.438,1.438,0,0,1,.114-.336,33.485,33.485,0,0,0,1.143-6.01c.129-1.122.186-2.2.222-3.252-.715-.093-3.959-.522-5.3-1.336s-2.716-2.144-2.859-3.716a2.673,2.673,0,0,1,2.566-3.037c2.258,0,4.588,3.337,5.21,5.253,0,.107.264,1.208.414,2.008v-1.429c0-1.708-.107-3.266-.214-4.652-.064-.786-.143-1.5-.222-2.144-.658-.45-3.266-2.294-4.066-3.616s-1.429-3.137-.843-4.624a2.673,2.673,0,0,1,3.68-1.508c2,1.036,2.53,5.074,2.2,7.061,0,.172-.786,2.809-.822,2.787h-.036c.086.636.172,1.322.25,2.073.143,1.386.279,2.952.322,4.667a48.941,48.941,0,0,1-.129,5.531,35.336,35.336,0,0,1-1.029,6.11v.071c.357-.557,1.429-2.08,1.494-2.194,1.322-1.522,4.767-3.695,6.846-2.809a2.666,2.666,0,0,1,1.179,3.795c-.765,1.394-2.6,2.087-4.1,2.308-1.68.243-5.217-.786-5.5-.865a47.383,47.383,0,0,1-2.144,5.932c-.486,1.129-1.008,2.251-1.551,3.366.322-.472.615-.893.665-.95,1.315-1.522,4.767-3.695,6.839-2.809a2.666,2.666,0,0,1,1.186,3.795c-.765,1.394-2.609,2.087-4.1,2.3s-4.545-.593-5.346-.815c-.214.422-.422.85-.636,1.279-1.022,2.037-2.051,4.066-3,6.089-.336.715-.643,1.429-.951,2.144.293-.422.536-.772.579-.822,1.322-1.522,4.767-3.695,6.846-2.816a2.673,2.673,0,0,1,1.179,3.8c-.765,1.394-2.6,2.087-4.095,2.3a16.518,16.518,0,0,1-5.2-.779c-.293.715-.586,1.479-.836,2.208-.157.507-.343.979-.479,1.494s-.279,1.008-.415,1.5c-.236.965-.479,1.958-.679,2.909-.15.657-.272,1.286-.407,1.915.329-.715.993-2.094,1.065-2.2,1.072-1.708,4.152-4.374,6.339-3.816a2.673,2.673,0,0,1,1.744,3.573,5.431,5.431,0,0,1-3.7,2.859c-1.587.486-5.1.043-5.531,0-.214,1.051-.407,2.073-.572,3.037-.593,3.352-.958,6.168-1.186,8.14-.043.35-.072.665-.107.958h6.8l-2.48,3.152H304.773l-2.48-3.152h6.332l-.143-.286c-.865-1.815-2.073-4.417-3.373-7.6-.415-1.008-.836-2.087-1.258-3.2-.422.086-3.9.793-5.517.429-1.472-.336-3.252-1.165-3.909-2.616a2.68,2.68,0,0,1,1.472-3.695c2.144-.715,5.41,1.715,6.611,3.337.071.093.715,1.215,1.115,1.937-.164-.457-.336-.9-.507-1.372-.343-.929-.658-1.872-.993-2.859l-.45-1.494c-.157-.5-.264-1.043-.4-1.565q-.439-1.833-.715-3.745c-.815.3-3.73,1.315-5.238,1.208s-3.387-.657-4.288-1.994a2.666,2.666,0,0,1,.9-3.873c2.008-1.036,5.6.872,7.032,2.294.086.086,1,1.222,1.486,1.858-.122-.765-.243-1.522-.336-2.3-.279-2.237-.493-4.509-.715-6.782-.064-.715-.143-1.386-.214-2.08-.286.107-3.723,1.386-5.417,1.272-1.5-.107-3.387-.658-4.288-1.994a2.673,2.673,0,0,1,.9-3.873c2.008-1.036,5.6.872,7.032,2.294.114.107,1.429,1.744,1.729,2.144-.157-1.522-.336-3.037-.565-4.531a48.72,48.72,0,0,0-1.3-5.967c-.136.057-3.716,1.429-5.453,1.286-1.5-.107-3.388-.657-4.288-1.994a2.666,2.666,0,0,1,.893-3.873c2.008-1.036,5.61.872,7.039,2.294.107.114,1.515,1.872,1.751,2.208-.036-.114-.057-.236-.093-.343a34.138,34.138,0,0,0-2.366-5.646c-.507-1.008-1.058-1.937-1.608-2.859-.643.322-3.573,1.751-5.16,1.815a5.5,5.5,0,0,1-4.452-1.515,2.68,2.68,0,0,1,.472-3.952c1.88-1.251,5.667.25,7.24,1.508.086.071.879.865,1.429,1.429-.257-.4-.507-.815-.765-1.193-.943-1.429-1.894-2.666-2.751-3.759-.486-.622-.943-1.172-1.372-1.679a17.439,17.439,0,0,1-5.389-.772c-1.4-.658-2.923-1.83-3.252-3.395a2.673,2.673,0,0,1,2.487-3.244ZM306.5,278.213c1.351,3.123,2.6,5.674,3.5,7.44.179.357.343.672.493.965h.15c.043-.343.093-.715.15-1.143.279-1.994.715-4.824,1.379-8.2.207-1.065.45-2.2.715-3.366a28.585,28.585,0,0,1-3.087-1.429,19.555,19.555,0,0,1-4.5,2.9c.4.972.808,1.93,1.2,2.83Z" transform="translate(-279.09 -210.487)" fill="#c2a3cc"/>
      <path id="Tracé_1713" data-name="Tracé 1713" d="M332.377,235.839s-.715-2.637-.715-2.809c-.279-1.994.357-6.017,2.394-7a2.673,2.673,0,0,1,3.638,1.615c.543,1.494-.15,3.33-.965,4.6C335.736,233.723,332.384,235.839,332.377,235.839Z" transform="translate(-317.999 -214.072)" fill="#c2a3cc"/>
    </g>
    <g id="Blocks--inject-104" transform="translate(84.909 79.783)">
      <rect id="Rectangle_233" data-name="Rectangle 233" width="85.352" height="47.632" transform="translate(120.227 59.717)" stroke-width="1" stroke="#263238" stroke-linecap="round" stroke-linejoin="round" fill="#fff"/>
      <rect id="Rectangle_234" data-name="Rectangle 234" width="24.198" height="47.632" transform="translate(120.227 59.717)" stroke-width="1" stroke="#263238" stroke-linecap="round" stroke-linejoin="round" fill="#263238"/>
      <rect id="Rectangle_235" data-name="Rectangle 235" width="85.352" height="154.567" transform="translate(57.094)" stroke-width="1" stroke="#263238" stroke-linecap="round" stroke-linejoin="round" fill="#fff"/>
      <rect id="Rectangle_236" data-name="Rectangle 236" width="24.198" height="154.567" transform="translate(57.094)" stroke-width="1" stroke="#263238" stroke-linecap="round" stroke-linejoin="round" fill="#263238"/>
      <rect id="Rectangle_237" data-name="Rectangle 237" width="85.352" height="47.632" transform="translate(120.227 107.063)" stroke-width="1" stroke="#263238" stroke-linecap="round" stroke-linejoin="round" fill="#fff"/>
      <rect id="Rectangle_238" data-name="Rectangle 238" width="46.296" height="47.632" transform="translate(80.371 107.063)" stroke-width="1" stroke="#263238" stroke-linecap="round" stroke-linejoin="round" fill="#263238"/>
      <rect id="Rectangle_239" data-name="Rectangle 239" width="68.765" height="47.632" transform="translate(54.307 107.063)" stroke-width="1" stroke="#263238" stroke-linecap="round" stroke-linejoin="round" fill="#fff"/>
      <path id="Tracé_1714" data-name="Tracé 1714" d="M134.99,277.906l44.416-58.416h24.32v15.229l32.839,43.187Z" transform="translate(-83.484 -195.499)" fill="#263238" stroke="#263238" stroke-linecap="round" stroke-linejoin="round" stroke-width="1"/>
      <path id="Tracé_1715" data-name="Tracé 1715" d="M163.2,219.49l44.423,58.416H118.78Z" transform="translate(-42.955 -195.499)" fill="#fff" stroke="#263238" stroke-linecap="round" stroke-linejoin="round" stroke-width="1"/>
      <rect id="Rectangle_240" data-name="Rectangle 240" width="85.352" height="71.995" transform="translate(0 82.7)" stroke-width="1" stroke="#263238" stroke-linecap="round" stroke-linejoin="round" fill="#c2a3cc"/>
      <rect id="Rectangle_241" data-name="Rectangle 241" width="32.517" height="71.995" transform="translate(0 82.7)" stroke-width="1" stroke="#263238" stroke-linecap="round" stroke-linejoin="round" fill="#263238"/>
      <rect id="Rectangle_242" data-name="Rectangle 242" width="85.352" height="71.995" transform="translate(89.59 82.7)" stroke-width="1" stroke="#263238" stroke-linecap="round" stroke-linejoin="round" fill="#c2a3cc"/>
      <rect id="Rectangle_243" data-name="Rectangle 243" width="32.517" height="71.995" transform="translate(89.59 82.7)" stroke-width="1" stroke="#263238" stroke-linecap="round" stroke-linejoin="round" fill="#263238"/>
    </g>
    <g id="character-2--inject-104" transform="translate(11.185 143.316)">
      <path id="Tracé_1716" data-name="Tracé 1716" d="M328.593,307.1l22.076-3.573a19.687,19.687,0,0,1,1.88-3.387c.636-.636,4.345-.422,4.345-.422s.715.422-.322.951-1.8.379-2.015.715-1.143,3.952-1.987,4.288a6.875,6.875,0,0,1-2.008.314s-22.819,8.662-23.977,8.454-1.9-3.173-1.9-3.173Z" transform="translate(-265.896 -281.914)" fill="#fff" stroke="#263238" stroke-linecap="round" stroke-linejoin="round" stroke-width="1"/>
      <path id="Tracé_1717" data-name="Tracé 1717" d="M328.593,303.847s1.487-1.837,1.93-1.837.436.715.086,1.051a10.918,10.918,0,0,0-1.315,2.187c-.436.879-2.1,1.051-2.1,1.051" transform="translate(-241.42 -282.579)" fill="#fff" stroke="#263238" stroke-linecap="round" stroke-linejoin="round" stroke-width="1"/>
      <path id="Tracé_1718" data-name="Tracé 1718" d="M366.128,298.67l12.549,8.033-4.288,9.083-12.049-7.818S360.318,300.678,366.128,298.67Z" transform="translate(-314.109 -281.626)" fill="#fff" stroke="#263238" stroke-linecap="round" stroke-linejoin="round" stroke-width="1"/>
      <path id="Tracé_1719" data-name="Tracé 1719" d="M373.483,295.173l-4.438.314-1.165-5.5,4.331-1.372,4.331,1.058-.843,3.488Z" transform="translate(-316.175 -278.758)" fill="#fff" stroke="#263238" stroke-linecap="round" stroke-linejoin="round" stroke-width="1"/>
      <path id="Tracé_1720" data-name="Tracé 1720" d="M359.655,288.063a6.789,6.789,0,0,0,3.059,1.058c1.9.214,3.8-2.144,3.8-4.86s-6.546-8.769-11.091-9.4-9.083,7.5-9.719,9.2.951,2.43,2.223,2.43,1.9-.107,2.323-.107-.422,1.158.95,1.794,3.166.529,4.016.843S359.226,289.12,359.655,288.063Z" transform="translate(-290.198 -274.821)" fill="#263238" stroke="#263238" stroke-linecap="round" stroke-linejoin="round" stroke-width="1"/>
      <path id="Tracé_1721" data-name="Tracé 1721" d="M367.479,289.767a18.054,18.054,0,0,1-2.537,4.224c-1.479,1.694-2.959,1.479-3.059,1.9s-.422,1.694-1.272,2.008a1.686,1.686,0,0,1-1.579-.314s-3.7,1.265-4.86.843-1.587-3.909-1.272-5.067a6.661,6.661,0,0,1,1.694-2.43s.1-3.487,1.579-3.809,2.859,1.272,2.537,2.144-.636,1.372-.529,1.694,2.008-.322,2.43-.636.636,1.265,2.223,1.372S367.479,289.767,367.479,289.767Z" transform="translate(-296.335 -278.319)" fill="#fff" stroke="#263238" stroke-linecap="round" stroke-linejoin="round" stroke-width="1"/>
      <path id="Tracé_1722" data-name="Tracé 1722" d="M378.11,289.36s2.215,7.082,2.644,8.347-.85,4.124-.85,4.124L375.437,290.2Z" transform="translate(-325.876 -278.969)" fill="#fff" stroke="#263238" stroke-linecap="round" stroke-linejoin="round" stroke-width="1"/>
      <path id="Tracé_1723" data-name="Tracé 1723" d="M419.46,330.693l.793,4.288s5.1,7.961,8.118,14.014,1.429,8.119,1.279,8.912-22.776,17.045-22.776,17.045h-3.981l17.03-19.918L408.3,340.226s-7.147,16.087-9.076,18-19.11,15.765-19.11,15.765l-3.5.479,14.972-23.72s6.21-20.068,8.919-23.412,3.823-4.774,3.823-4.774Z" transform="translate(-376.08 -288.443)" fill="#263238" stroke="#263238" stroke-linecap="round" stroke-linejoin="round" stroke-width="1"/>
      <path id="Tracé_1724" data-name="Tracé 1724" d="M404.217,341.95l-7.6,3.831,5.51-.765" transform="translate(-364.389 -293.975)" fill="none" stroke="#fff" stroke-linecap="round" stroke-linejoin="round" stroke-width="0.5"/>
      <line id="Ligne_210" data-name="Ligne 210" y1="1.494" x2="4.895" transform="translate(43.851 65.119)" fill="none" stroke="#fff" stroke-linecap="round" stroke-linejoin="round" stroke-width="0.5"/>
      <path id="Tracé_1725" data-name="Tracé 1725" d="M401.969,335.71l-1.394,1.537,1.115,2.087-1.672.422L398.76,337.1l.836-1.394" transform="translate(-363.671 -292.195)" fill="none" stroke="#fff" stroke-linecap="round" stroke-linejoin="round" stroke-width="0.5"/>
      <path id="Tracé_1726" data-name="Tracé 1726" d="M398.76,291.478s3.166,8.14,3.573,10.041a12.839,12.839,0,0,1-1.058,7.5c-1.265,3.059-6.232,8.24-7.082,9.4s-.422,2.859-2.215,3.8-5.982.229-8.848-1.208c-2.244-1.122-6.368-5.339-6.475-6.711s5.917-8.769,9.09-13.95,4.752-7.5,7.6-8.976S397.988,290.528,398.76,291.478Z" transform="translate(-348.427 -279.294)" fill="#fff" stroke="#263238" stroke-linecap="round" stroke-linejoin="round" stroke-width="1"/>
      <path id="Tracé_1727" data-name="Tracé 1727" d="M393.552,308.929s-8.154-.179-8.862-.179" transform="translate(-345.198 -284.502)" fill="none" stroke="#263238" stroke-linecap="round" stroke-linejoin="round" stroke-width="1"/>
      <path id="Tracé_1728" data-name="Tracé 1728" d="M398.451,310.2s-11.527,4.431-15.251,4.61" transform="translate(-349.033 -284.916)" fill="none" stroke="#263238" stroke-linecap="round" stroke-linejoin="round" stroke-width="1"/>
      <path id="Tracé_1729" data-name="Tracé 1729" d="M316.163,308.646s26.207-2.537,27.364-2.751,3.18-3.974,3.5-4.4a13.785,13.785,0,0,1,4.116-1.579c.543,0,2.68.35,1.837.879a24.05,24.05,0,0,0-2.8,2.537,29.747,29.747,0,0,1-3.273,3.3,10.991,10.991,0,0,1-3.03,1.344s-28.029,7.1-29.3,6.682,1.158-6.125,1.158-6.125Z" transform="translate(-254.452 -281.982)" fill="#fff" stroke="#263238" stroke-linecap="round" stroke-linejoin="round" stroke-width="1"/>
      <path id="Tracé_1730" data-name="Tracé 1730" d="M368.577,294.257a3.144,3.144,0,0,1,3.573.529c1.687,1.579,13.629,11.62,13.629,11.62l-3.066,8.769-17.116-13s-1.9-2.859-.314-5.281" transform="translate(-323.103 -280.271)" fill="#fff" stroke="#263238" stroke-linecap="round" stroke-linejoin="round" stroke-width="1"/>
      <path id="Tracé_1731" data-name="Tracé 1731" d="M406.111,395.89l2.709,2.387s3.823.793,3.666,1.908-6.053.479-7.147.479-4.459-1.115-4.938-2.23,1.751-2.544,1.751-2.544Z" transform="translate(-375.317 -309.367)" fill="#fff" stroke="#263238" stroke-linecap="round" stroke-linejoin="round" stroke-width="1"/>
      <path id="Tracé_1732" data-name="Tracé 1732" d="M444.247,394.55l1.272,3.5s3.666,1.594,3.345,2.551-7.8.472-8.44-.322.322-5.253.322-5.253Z" transform="translate(-440.202 -308.984)" fill="#fff" stroke="#263238" stroke-linecap="round" stroke-linejoin="round" stroke-width="1"/>
    </g>
    <g id="Floor--inject-104" transform="translate(0 234.135)">
      <rect id="Rectangle_244" data-name="Rectangle 244" width="300" height="3.187" fill="#263238" stroke="#263238" stroke-linecap="round" stroke-linejoin="round" stroke-width="1"/>
    </g>
  </g>
</svg>
