<svg id="code" xmlns="http://www.w3.org/2000/svg" width="59.259" height="50" viewBox="0 0 59.259 50">
  <circle id="Ellipse_14" data-name="Ellipse 14" cx="0.9" cy="0.9" r="0.9" transform="translate(4.667 7.406)" fill="#c2a3cc"/>
  <circle id="Ellipse_15" data-name="Ellipse 15" cx="0.9" cy="0.9" r="0.9" transform="translate(1.068 7.406)" fill="#c2a3cc"/>
  <circle id="Ellipse_16" data-name="Ellipse 16" cx="0.9" cy="0.9" r="0.9" transform="translate(8.267 7.406)" fill="#c2a3cc"/>
  <circle id="Ellipse_17" data-name="Ellipse 17" cx="0.9" cy="0.9" r="0.9" transform="translate(12.066 7.406)" fill="#c2a3cc"/>
  <ellipse id="Ellipse_18" data-name="Ellipse 18" cx="1" cy="0.9" rx="1" ry="0.9" transform="translate(15.666 7.406)" fill="#c2a3cc"/>
  <circle id="Ellipse_19" data-name="Ellipse 19" cx="0.9" cy="0.9" r="0.9" transform="translate(19.465 7.406)" fill="#c2a3cc"/>
  <circle id="Ellipse_20" data-name="Ellipse 20" cx="0.9" cy="0.9" r="0.9" transform="translate(23.265 7.406)" fill="#c2a3cc"/>
  <circle id="Ellipse_21" data-name="Ellipse 21" cx="0.9" cy="0.9" r="0.9" transform="translate(26.864 7.406)" fill="#c2a3cc"/>
  <ellipse id="Ellipse_22" data-name="Ellipse 22" cx="1" cy="0.9" rx="1" ry="0.9" transform="translate(30.464 7.406)" fill="#c2a3cc"/>
  <circle id="Ellipse_23" data-name="Ellipse 23" cx="0.9" cy="0.9" r="0.9" transform="translate(34.263 7.406)" fill="#c2a3cc"/>
  <circle id="Ellipse_24" data-name="Ellipse 24" cx="0.9" cy="0.9" r="0.9" transform="translate(38.062 7.406)" fill="#c2a3cc"/>
  <ellipse id="Ellipse_25" data-name="Ellipse 25" cx="1" cy="0.9" rx="1" ry="0.9" transform="translate(41.662 7.406)" fill="#c2a3cc"/>
  <circle id="Ellipse_26" data-name="Ellipse 26" cx="0.9" cy="0.9" r="0.9" transform="translate(45.461 7.406)" fill="#c2a3cc"/>
  <circle id="Ellipse_27" data-name="Ellipse 27" cx="0.9" cy="0.9" r="0.9" transform="translate(49.061 7.406)" fill="#c2a3cc"/>
  <ellipse id="Ellipse_28" data-name="Ellipse 28" cx="1" cy="0.9" rx="1" ry="0.9" transform="translate(52.66 7.406)" fill="#c2a3cc"/>
  <circle id="Ellipse_29" data-name="Ellipse 29" cx="0.9" cy="0.9" r="0.9" transform="translate(56.46 7.406)" fill="#c2a3cc"/>
  <path id="Tracé_10" data-name="Tracé 10" d="M12.63,13A4.643,4.643,0,0,0,8,17.63V63H67.259V17.63A4.643,4.643,0,0,0,62.63,13Zm0,1.852h50a2.765,2.765,0,0,1,2.778,2.778V61.148H9.852V17.63A2.765,2.765,0,0,1,12.63,14.852ZM40.849,29.667l-9.7,25H33l9.7-25Zm-14.059,4.9L19.654,41.7,26.79,48.84,28.1,47.531,22.272,41.7,28.1,35.877Zm21.68,0L47.16,35.877,52.987,41.7,47.16,47.531l1.309,1.309L55.606,41.7Z" transform="translate(-8 -13)"/>
</svg>
