<svg xmlns="http://www.w3.org/2000/svg" width="22" height="22" viewBox="0 0 22 22">
  <path id="instagram" d="M9.111,3A6.118,6.118,0,0,0,3,9.111v9.778A6.118,6.118,0,0,0,9.111,25h9.778A6.118,6.118,0,0,0,25,18.889V9.111A6.118,6.118,0,0,0,18.889,3Zm0,2.444h9.778a3.671,3.671,0,0,1,3.667,3.667v9.778a3.671,3.671,0,0,1-3.667,3.667H9.111a3.671,3.671,0,0,1-3.667-3.667V9.111A3.671,3.671,0,0,1,9.111,5.444Zm11,1.222a1.222,1.222,0,1,0,1.222,1.222A1.222,1.222,0,0,0,20.111,6.667ZM14,7.889A6.111,6.111,0,1,0,20.111,14,6.118,6.118,0,0,0,14,7.889Zm0,2.444A3.667,3.667,0,1,1,10.333,14,3.671,3.671,0,0,1,14,10.333Z" transform="translate(-3 -3)" fill="#263238"/>
</svg>
