<svg xmlns="http://www.w3.org/2000/svg" width="423.498" height="365.708" viewBox="0 0 423.498 365.708">
  <g id="Typing-bro" transform="translate(-27.111 -60.743)">
    <g id="background-simple--inject-1--inject-531" transform="translate(44.922 60.743)">
      <path id="Tracé_3765" data-name="Tracé 3765" d="M403.155,173.9c2.154-22.26,7.306-43.334-1.8-64.741C384.633,69.878,334.2,49.022,295.013,67.629c-20.04,9.489-37.176,23.37-59.247,28.466C176.2,109.844,84.252,36.592,51.829,121.875,40.7,151.138,45.187,189.7,65.313,214.161c6.462,7.847,14.356,14.679,19.139,23.655,13.085,24.566-5.437,51.561-13.787,74.476-19.831,54.152,54.939,84.117,95.522,89.639,67.084,9.185,122.422-67.673,189.136-36.36,46.494,21.824,87.3-31.312,78.755-84.449-5.589-34.785-33.884-68.081-31.236-103.53C402.936,176.368,403.041,175.144,403.155,173.9Z" transform="translate(-45.881 -60.743)" fill="#c2a3cc"/>
      <path id="Tracé_3766" data-name="Tracé 3766" d="M403.155,173.9c2.154-22.26,7.306-43.334-1.8-64.741C384.633,69.878,334.2,49.022,295.013,67.629c-20.04,9.489-37.176,23.37-59.247,28.466C176.2,109.844,84.252,36.592,51.829,121.875,40.7,151.138,45.187,189.7,65.313,214.161c6.462,7.847,14.356,14.679,19.139,23.655,13.085,24.566-5.437,51.561-13.787,74.476-19.831,54.152,54.939,84.117,95.522,89.639,67.084,9.185,122.422-67.673,189.136-36.36,46.494,21.824,87.3-31.312,78.755-84.449-5.589-34.785-33.884-68.081-31.236-103.53C402.936,176.368,403.041,175.144,403.155,173.9Z" transform="translate(-45.881 -60.743)" fill="#fff" opacity="0.7"/>
    </g>
    <g id="Plant--inject-1--inject-531" transform="translate(27.111 92.764)">
      <circle id="Ellipse_163" data-name="Ellipse 163" cx="32.764" cy="32.764" r="32.764" transform="translate(22.895 30.088)" stroke-width="1" stroke="#2e353a" stroke-linecap="round" stroke-linejoin="round" fill="#fff"/>
      <circle id="Ellipse_164" data-name="Ellipse 164" cx="32.764" cy="32.764" r="32.764" transform="translate(20.457 26.834)" stroke-width="1" stroke="#2e353a" stroke-linecap="round" stroke-linejoin="round" fill="#fff"/>
      <circle id="Ellipse_165" data-name="Ellipse 165" cx="29.51" cy="29.51" r="29.51" transform="translate(23.712 30.088)" stroke-width="1" stroke="#2e353a" stroke-linecap="round" stroke-linejoin="round" fill="#2e353a"/>
      <path id="Tracé_3767" data-name="Tracé 3767" d="M76.868,132.539S73.614,124.4,67.921,118.7s-28.9-9.365-28.9-9.365a85.092,85.092,0,0,1,10.181,11.8c5.285,7.325,22.773,24.016,22.773,24.016s-8.54-7.325-16.282-8.141-27.27,3.255-28.466,3.255,7.325,3.255,13.436,6.1,29.709,5.295,29.709,5.295-10.172,2.847-17.079,5.295-13.455,20.344-13.455,20.344,8.957-8.141,16.69-10.172,18.721-5.693,18.721-5.693-6.917,7.733-8.54,13.028-.408,17.5-.408,17.5,3.663-11.386,8.141-15.874,9.346-12.164,9.346-12.164A111.966,111.966,0,0,1,89.9,175.313c3.255,6.917,5.285,17.079,5.285,17.079s5.295-11.386,4.887-17.079-6.509-15.874-6.509-15.874,4.071-2.847,10.172-.408,16.69,12.62,16.69,12.62-2.448-13.436-6.519-18.721S92.335,146,92.335,146s9.773-5.693,15.874-6.917,14.233,1.632,14.233,1.632-9.356-13.028-16.681-13.844-18.313,10.551-18.313,10.551l3.264-16.282c.807-4.071-.816-14.233-.816-14.233s-4.479,2.439-9.773,10.172A20.268,20.268,0,0,0,76.868,132.539Z" transform="translate(-27.111 -95.125)" fill="#c2a3cc"/>
      <path id="Tracé_3768" data-name="Tracé 3768" d="M76.868,132.539S73.614,124.4,67.921,118.7s-28.9-9.365-28.9-9.365a85.092,85.092,0,0,1,10.181,11.8c5.285,7.325,22.773,24.016,22.773,24.016s-8.54-7.325-16.282-8.141-27.27,3.255-28.466,3.255,7.325,3.255,13.436,6.1,29.709,5.295,29.709,5.295-10.172,2.847-17.079,5.295-13.455,20.344-13.455,20.344,8.957-8.141,16.69-10.172,18.721-5.693,18.721-5.693-6.917,7.733-8.54,13.028-.408,17.5-.408,17.5,3.663-11.386,8.141-15.874,9.346-12.164,9.346-12.164A111.966,111.966,0,0,1,89.9,175.313c3.255,6.917,5.285,17.079,5.285,17.079s5.295-11.386,4.887-17.079-6.509-15.874-6.509-15.874,4.071-2.847,10.172-.408,16.69,12.62,16.69,12.62-2.448-13.436-6.519-18.721S92.335,146,92.335,146s9.773-5.693,15.874-6.917,14.233,1.632,14.233,1.632-9.356-13.028-16.681-13.844-18.313,10.551-18.313,10.551l3.264-16.282c.807-4.071-.816-14.233-.816-14.233s-4.479,2.439-9.773,10.172A20.268,20.268,0,0,0,76.868,132.539Z" transform="translate(-27.111 -95.125)" opacity="0.5"/>
      <path id="Tracé_3769" data-name="Tracé 3769" d="M88,120.672c.285-1.167.6-2.334.949-3.482" transform="translate(-30.224 -95.651)" fill="none" stroke="#2e353a" stroke-linecap="round" stroke-linejoin="round" stroke-width="0.5"/>
      <path id="Tracé_3770" data-name="Tracé 3770" d="M59.35,120.86c3.8,2.78,8.54,6.642,11.026,9.954,4.479,6.1,13.436,19.129,13.436,19.129a121.027,121.027,0,0,1,2.069-26.1" transform="translate(-28.759 -95.839)" fill="none" stroke="#2e353a" stroke-linecap="round" stroke-linejoin="round" stroke-width="0.5"/>
      <path id="Tracé_3771" data-name="Tracé 3771" d="M53.39,116.76s1.186.759,2.96,1.983" transform="translate(-28.454 -95.629)" fill="none" stroke="#2e353a" stroke-linecap="round" stroke-linejoin="round" stroke-width="0.5"/>
      <path id="Tracé_3772" data-name="Tracé 3772" d="M85.13,150.6s15.466-15.466,21.976-16.69,12.212,3.663,12.212,3.663" transform="translate(-30.078 -96.496)" fill="none" stroke="#2e353a" stroke-linecap="round" stroke-linejoin="round" stroke-width="0.5"/>
      <path id="Tracé_3773" data-name="Tracé 3773" d="M55.779,165.14c-3.8,2.391-4.109,3.8-4.109,3.8" transform="translate(-28.367 -98.103)" fill="none" stroke="#2e353a" stroke-linecap="round" stroke-linejoin="round" stroke-width="0.5"/>
      <path id="Tracé_3774" data-name="Tracé 3774" d="M117.568,165.862s-2.439-6.111-10.988-8.957-21.966-3.255-21.966-3.255-18.835,6.168-25.724,9.384" transform="translate(-28.736 -97.515)" fill="none" stroke="#2e353a" stroke-linecap="round" stroke-linejoin="round" stroke-width="0.5"/>
      <path id="Tracé_3775" data-name="Tracé 3775" d="M77.32,151.2c4.555,1.328,8.227,2.325,8.227,2.325" transform="translate(-29.678 -97.39)" fill="none" stroke="#2e353a" stroke-linecap="round" stroke-linejoin="round" stroke-width="0.5"/>
      <path id="Tracé_3776" data-name="Tracé 3776" d="M47.11,143.58c4.422.266,10.115.873,13.284,2.23,2.581,1.11,7.667,2.714,12.468,4.147" transform="translate(-28.133 -97)" fill="none" stroke="#2e353a" stroke-linecap="round" stroke-linejoin="round" stroke-width="0.5"/>
      <path id="Tracé_3777" data-name="Tracé 3777" d="M40.52,143.36s1.49,0,3.682.085" transform="translate(-27.796 -96.989)" fill="none" stroke="#2e353a" stroke-linecap="round" stroke-linejoin="round" stroke-width="0.5"/>
      <path id="Tracé_3778" data-name="Tracé 3778" d="M84.428,156.22S73.042,173.3,72.216,177.389a41.447,41.447,0,0,0-.816,7.325" transform="translate(-29.375 -97.647)" fill="none" stroke="#2e353a" stroke-linecap="round" stroke-linejoin="round" stroke-width="0.5"/>
      <path id="Tracé_3779" data-name="Tracé 3779" d="M90.47,161.89c2.192,2.847,4.82,6.642,5.921,9.678a66.781,66.781,0,0,1,2.847,11.386" transform="translate(-30.351 -97.937)" fill="none" stroke="#2e353a" stroke-linecap="round" stroke-linejoin="round" stroke-width="0.5"/>
      <path id="Tracé_3780" data-name="Tracé 3780" d="M86.84,157.51s.949,1.006,2.173,2.552" transform="translate(-30.165 -97.713)" fill="none" stroke="#2e353a" stroke-linecap="round" stroke-linejoin="round" stroke-width="0.5"/>
      <path id="Tracé_3781" data-name="Tracé 3781" d="M72.359,135.414s-2.1-8.54-.8-16.463S89.591,94.49,89.591,94.49a85.586,85.586,0,0,0-1.376,15.523c0,9.033-4.507,32.793-4.507,32.793s2.666-10.931,8.473-16.131,24.054-13.284,25.04-13.977-4.052,6.917-7.344,12.8-21.065,21.662-21.065,21.662,9.925-3.625,16.966-5.693,22.773,8.692,22.773,8.692-12.022-1.385-19.49,1.471-18.531,6.291-18.531,6.291,10.134,2.249,14.537,5.6,10.551,14.005,10.551,14.005S106,170.4,99.743,169.374s-14.726-4.45-14.726-4.45a114.471,114.471,0,0,0,1.689,12.81c1.395,7.524,5.693,16.975,5.693,16.975s-10.94-6.168-13.939-11.035-3.966-16.69-3.966-16.69-4.972.057-8.54,5.6-6.2,19.983-6.2,19.983-5.845-12.335-5.627-18.977,13.483-18.2,13.483-18.2-11.253,1.072-16.928,3.634-10.627,9.631-10.627,9.631,0-16.036,5.484-20.97S66.6,145.6,66.6,145.6l-12.145-11.32c-3.036-2.847-7.648-12.051-7.648-12.051s5.067-.626,13.872,2.571a20.22,20.22,0,0,1,11.68,10.618Z" transform="translate(-27.773 -94.49)" fill="#c2a3cc"/>
      <path id="Tracé_3782" data-name="Tracé 3782" d="M59.47,131.817c-.949-.788-1.841-1.547-2.79-2.287" transform="translate(-28.623 -96.282)" fill="none" stroke="#2e353a" stroke-linecap="round" stroke-linejoin="round" stroke-width="0.5"/>
      <path id="Tracé_3783" data-name="Tracé 3783" d="M81.822,115.23c-1.471,4.479-3.112,10.371-3.15,14.508-.076,7.591.247,23.37.247,23.37A120.619,120.619,0,0,0,62,133.126" transform="translate(-28.895 -95.551)" fill="none" stroke="#2e353a" stroke-linecap="round" stroke-linejoin="round" stroke-width="0.5"/>
      <path id="Tracé_3784" data-name="Tracé 3784" d="M85.282,108.42s-.531,1.309-1.252,3.331" transform="translate(-30.021 -95.202)" fill="none" stroke="#2e353a" stroke-linecap="round" stroke-linejoin="round" stroke-width="0.5"/>
      <path id="Tracé_3785" data-name="Tracé 3785" d="M77.924,155.052s-21.587-3.539-27.583-.731S42.56,164.4,42.56,164.4" transform="translate(-27.901 -97.494)" fill="none" stroke="#2e353a" stroke-linecap="round" stroke-linejoin="round" stroke-width="0.5"/>
      <path id="Tracé_3786" data-name="Tracé 3786" d="M111.45,149.228c4.45-.247,5.513.655,5.513.655" transform="translate(-31.424 -97.287)" fill="none" stroke="#2e353a" stroke-linecap="round" stroke-linejoin="round" stroke-width="0.5"/>
      <path id="Tracé_3787" data-name="Tracé 3787" d="M59.658,186.142s-1.575-6.386,3.7-13.683S79.319,157,79.319,157s18.892-5.987,26.359-7.382" transform="translate(-28.764 -97.309)" fill="none" stroke="#2e353a" stroke-linecap="round" stroke-linejoin="round" stroke-width="0.5"/>
      <path id="Tracé_3788" data-name="Tracé 3788" d="M85.714,150.35c-2.923,3.729-5.314,6.689-5.314,6.689" transform="translate(-29.836 -97.347)" fill="none" stroke="#2e353a" stroke-linecap="round" stroke-linejoin="round" stroke-width="0.5"/>
      <path id="Tracé_3789" data-name="Tracé 3789" d="M105.163,126.54c-3.435,2.847-7.7,6.642-9.489,9.555-1.452,2.41-4.649,6.642-7.714,10.637" transform="translate(-30.222 -96.129)" fill="none" stroke="#2e353a" stroke-linecap="round" stroke-linejoin="round" stroke-width="0.5"/>
      <path id="Tracé_3790" data-name="Tracé 3790" d="M111.151,122.51s-1.205.873-2.941,2.22" transform="translate(-31.258 -95.923)" fill="none" stroke="#2e353a" stroke-linecap="round" stroke-linejoin="round" stroke-width="0.5"/>
      <path id="Tracé_3791" data-name="Tracé 3791" d="M82.58,159s19.233,7.23,22.26,10.067a41.2,41.2,0,0,1,4.934,5.475" transform="translate(-29.947 -97.789)" fill="none" stroke="#2e353a" stroke-linecap="round" stroke-linejoin="round" stroke-width="0.5"/>
      <path id="Tracé_3792" data-name="Tracé 3792" d="M81.547,166.7c-.133,3.587-.066,8.189.835,11.32a66.153,66.153,0,0,0,4.336,10.921" transform="translate(-29.892 -98.183)" fill="none" stroke="#2e353a" stroke-linecap="round" stroke-linejoin="round" stroke-width="0.5"/>
      <path id="Tracé_3793" data-name="Tracé 3793" d="M81.926,161s-.152,1.347-.266,3.34" transform="translate(-29.9 -97.891)" fill="none" stroke="#2e353a" stroke-linecap="round" stroke-linejoin="round" stroke-width="0.5"/>
    </g>
    <g id="Device--inject-1--inject-531" transform="translate(101.773 89.861)">
      <path id="Tracé_3794" data-name="Tracé 3794" d="M140.284,183.43H355.363a10.124,10.124,0,0,1,10.124,10.124V333.037a11.073,11.073,0,0,1-11.073,11.073H141.233a11.073,11.073,0,0,1-11.073-11.073V193.554a10.124,10.124,0,0,1,10.124-10.124Z" transform="translate(-107.043 -96.135)" fill="#fff" stroke="#2e353a" stroke-linecap="round" stroke-linejoin="round" stroke-width="1"/>
      <rect id="Rectangle_386" data-name="Rectangle 386" width="13.246" height="8.701" transform="translate(98.713 103.113)" fill="#2e353a"/>
      <rect id="Rectangle_387" data-name="Rectangle 387" width="12.297" height="12.202" transform="translate(56.745 156.79)" fill="#2e353a"/>
      <rect id="Rectangle_388" data-name="Rectangle 388" width="12.392" height="12.202" transform="translate(110.982 113.901)" fill="#2e353a"/>
      <rect id="Rectangle_389" data-name="Rectangle 389" width="13.246" height="8.701" transform="translate(83.37 103.113)" fill="#2e353a"/>
      <rect id="Rectangle_390" data-name="Rectangle 390" width="12.392" height="12.202" transform="translate(125.461 113.901)" fill="#2e353a"/>
      <rect id="Rectangle_391" data-name="Rectangle 391" width="13.246" height="8.701" transform="translate(114.047 103.113)" fill="#2e353a"/>
      <rect id="Rectangle_392" data-name="Rectangle 392" width="23.304" height="12.202" transform="translate(38.308 142.49)" fill="#2e353a"/>
      <rect id="Rectangle_393" data-name="Rectangle 393" width="12.392" height="12.202" transform="translate(82.013 113.901)" fill="#2e353a"/>
      <rect id="Rectangle_394" data-name="Rectangle 394" width="16.349" height="12.202" transform="translate(38.308 156.79)" fill="#2e353a"/>
      <rect id="Rectangle_395" data-name="Rectangle 395" width="13.246" height="8.701" transform="translate(129.39 103.113)" fill="#2e353a"/>
      <rect id="Rectangle_396" data-name="Rectangle 396" width="12.392" height="12.202" transform="translate(53.044 113.901)" fill="#2e353a"/>
      <rect id="Rectangle_397" data-name="Rectangle 397" width="13.246" height="8.701" transform="translate(52.693 103.113)" fill="#2e353a"/>
      <rect id="Rectangle_398" data-name="Rectangle 398" width="13.246" height="8.701" transform="translate(68.036 103.113)" fill="#2e353a"/>
      <rect id="Rectangle_399" data-name="Rectangle 399" width="12.392" height="12.202" transform="translate(67.524 113.901)" fill="#2e353a"/>
      <rect id="Rectangle_400" data-name="Rectangle 400" width="12.392" height="12.202" transform="translate(96.493 113.901)" fill="#2e353a"/>
      <rect id="Rectangle_401" data-name="Rectangle 401" width="13.246" height="8.701" transform="translate(190.752 103.113)" fill="#2e353a"/>
      <rect id="Rectangle_402" data-name="Rectangle 402" width="13.246" height="8.701" transform="translate(206.086 103.113)" fill="#2e353a"/>
      <rect id="Rectangle_403" data-name="Rectangle 403" width="12.392" height="12.202" transform="translate(197.888 113.901)" fill="#2e353a"/>
      <rect id="Rectangle_404" data-name="Rectangle 404" width="12.392" height="12.202" transform="translate(212.377 113.901)" fill="#2e353a"/>
      <rect id="Rectangle_405" data-name="Rectangle 405" width="18.247" height="12.202" transform="translate(229.438 156.79)" fill="#2e353a"/>
      <rect id="Rectangle_406" data-name="Rectangle 406" width="13.246" height="8.701" transform="translate(221.429 103.113)" fill="#2e353a"/>
      <rect id="Rectangle_407" data-name="Rectangle 407" width="12.648" height="12.202" transform="translate(38.308 113.901)" fill="#2e353a"/>
      <rect id="Rectangle_408" data-name="Rectangle 408" width="13.246" height="8.701" transform="translate(144.733 103.113)" fill="#2e353a"/>
      <rect id="Rectangle_409" data-name="Rectangle 409" width="13.246" height="8.701" transform="translate(160.066 103.113)" fill="#2e353a"/>
      <rect id="Rectangle_410" data-name="Rectangle 410" width="12.392" height="12.202" transform="translate(154.44 113.901)" fill="#2e353a"/>
      <rect id="Rectangle_411" data-name="Rectangle 411" width="12.392" height="12.202" transform="translate(183.408 113.901)" fill="#2e353a"/>
      <rect id="Rectangle_412" data-name="Rectangle 412" width="12.392" height="12.202" transform="translate(139.95 113.901)" fill="#2e353a"/>
      <rect id="Rectangle_413" data-name="Rectangle 413" width="12.392" height="12.202" transform="translate(168.919 113.901)" fill="#2e353a"/>
      <rect id="Rectangle_414" data-name="Rectangle 414" width="13.246" height="8.701" transform="translate(175.409 103.113)" fill="#2e353a"/>
      <rect id="Rectangle_415" data-name="Rectangle 415" width="12.297" height="12.202" transform="translate(157.485 156.79)" fill="#2e353a"/>
      <rect id="Rectangle_416" data-name="Rectangle 416" width="12.297" height="12.202" transform="translate(222.008 142.49)" fill="#2e353a"/>
      <rect id="Rectangle_417" data-name="Rectangle 417" width="12.297" height="12.202" transform="translate(207.614 142.49)" fill="#2e353a"/>
      <rect id="Rectangle_418" data-name="Rectangle 418" width="12.297" height="12.202" transform="translate(215.043 156.79)" fill="#2e353a"/>
      <rect id="Rectangle_419" data-name="Rectangle 419" width="12.297" height="12.202" transform="translate(200.659 156.79)" fill="#2e353a"/>
      <rect id="Rectangle_420" data-name="Rectangle 420" width="12.297" height="12.202" transform="translate(171.87 156.79)" fill="#2e353a"/>
      <rect id="Rectangle_421" data-name="Rectangle 421" width="12.297" height="12.202" transform="translate(186.264 156.79)" fill="#2e353a"/>
      <rect id="Rectangle_422" data-name="Rectangle 422" width="12.297" height="12.202" transform="translate(193.219 142.49)" fill="#2e353a"/>
      <rect id="Rectangle_423" data-name="Rectangle 423" width="12.297" height="12.202" transform="translate(178.835 142.49)" fill="#2e353a"/>
      <rect id="Rectangle_424" data-name="Rectangle 424" width="10.921" height="8.701" transform="translate(236.772 103.113)" fill="#2e353a"/>
      <rect id="Rectangle_425" data-name="Rectangle 425" width="12.297" height="8.701" transform="translate(38.308 103.113)" fill="#2e353a"/>
      <rect id="Rectangle_426" data-name="Rectangle 426" width="209.385" height="12.686" transform="translate(38.308 171.08)" fill="#2e353a"/>
      <rect id="Rectangle_427" data-name="Rectangle 427" width="20.827" height="12.202" transform="translate(226.857 113.901)" fill="#2e353a"/>
      <rect id="Rectangle_428" data-name="Rectangle 428" width="11.291" height="12.202" transform="translate(236.393 142.49)" fill="#2e353a"/>
      <path id="Tracé_3795" data-name="Tracé 3795" d="M340.781,238.647h-2.1V226.54h-12.3v12.107H324.3V226.54H312v12.107h-2.1V226.54h-12.3v12.107h-2.1V226.54h-12.3v12.107h-2.088V226.54h-12.3v12.107h-2.1V226.54h-12.3v12.107h-2.1V226.54h-12.3v12.107h-2.088V226.54h-12.3v12.107h-2.1V226.54h-12.3v12.107h-2.1V226.54h-12.3v12.107H194.78V226.54h-12.3v12.107h-2.1V226.54h-12.3v12.107h-2.1V226.54H146.17v12.2H355.546v-12.2H340.781Z" transform="translate(-107.862 -98.339)" fill="#2e353a"/>
      <rect id="Rectangle_429" data-name="Rectangle 429" width="12.297" height="12.202" transform="translate(121.267 142.49)" fill="#2e353a"/>
      <rect id="Rectangle_430" data-name="Rectangle 430" width="12.297" height="12.202" transform="translate(164.441 142.49)" fill="#2e353a"/>
      <rect id="Rectangle_431" data-name="Rectangle 431" width="12.297" height="12.202" transform="translate(92.488 142.49)" fill="#2e353a"/>
      <rect id="Rectangle_432" data-name="Rectangle 432" width="12.297" height="12.202" transform="translate(99.918 156.79)" fill="#2e353a"/>
      <rect id="Rectangle_433" data-name="Rectangle 433" width="12.297" height="12.202" transform="translate(106.873 142.49)" fill="#2e353a"/>
      <rect id="Rectangle_434" data-name="Rectangle 434" width="12.297" height="12.202" transform="translate(78.094 142.49)" fill="#2e353a"/>
      <rect id="Rectangle_435" data-name="Rectangle 435" width="12.297" height="12.202" transform="translate(71.139 156.79)" fill="#2e353a"/>
      <rect id="Rectangle_436" data-name="Rectangle 436" width="12.297" height="12.202" transform="translate(85.524 156.79)" fill="#2e353a"/>
      <rect id="Rectangle_437" data-name="Rectangle 437" width="12.297" height="12.202" transform="translate(135.662 142.49)" fill="#2e353a"/>
      <rect id="Rectangle_438" data-name="Rectangle 438" width="12.297" height="12.202" transform="translate(143.091 156.79)" fill="#2e353a"/>
      <rect id="Rectangle_439" data-name="Rectangle 439" width="12.297" height="12.202" transform="translate(150.046 142.49)" fill="#2e353a"/>
      <rect id="Rectangle_440" data-name="Rectangle 440" width="12.297" height="12.202" transform="translate(114.312 156.79)" fill="#2e353a"/>
      <rect id="Rectangle_441" data-name="Rectangle 441" width="12.297" height="12.202" transform="translate(128.697 156.79)" fill="#2e353a"/>
      <rect id="Rectangle_442" data-name="Rectangle 442" width="12.297" height="12.202" transform="translate(63.7 142.49)" fill="#2e353a"/>
      <path id="Tracé_3796" data-name="Tracé 3796" d="M377.677,91.43H114.216a8.426,8.426,0,0,0-8.132,10.608l19.262,71.715A8.426,8.426,0,0,0,133.478,180h26.891v4.963h172.4v-4.934h25.619a8.426,8.426,0,0,0,8.132-6.243l19.262-71.715a8.426,8.426,0,0,0-8.1-10.637Z" transform="translate(-105.797 -91.43)" fill="#2e353a" stroke="#2e353a" stroke-linecap="round" stroke-linejoin="round" stroke-width="1"/>
      <path id="Tracé_3797" data-name="Tracé 3797" d="M348.843,174.145H144.971L124.58,100.77H369.225Z" transform="translate(-106.757 -91.908)" fill="#c2a3cc" stroke="#2e353a" stroke-linecap="round" stroke-linejoin="round" stroke-width="1"/>
      <path id="Tracé_3798" data-name="Tracé 3798" d="M160.136,144.16v.949h-3.6v-.949Z" transform="translate(-108.392 -94.127)" fill="#2e353a"/>
      <path id="Tracé_3799" data-name="Tracé 3799" d="M164.856,144.16v.949H161.25v-.949Z" transform="translate(-108.633 -94.127)" fill="#2e353a"/>
      <path id="Tracé_3800" data-name="Tracé 3800" d="M169.577,144.16v.949H166v-.949Z" transform="translate(-108.876 -94.127)" fill="#2e353a"/>
      <path id="Tracé_3801" data-name="Tracé 3801" d="M174.286,144.16v.949h-3.6v-.949Z" transform="translate(-109.115 -94.127)" fill="#2e353a"/>
      <path id="Tracé_3802" data-name="Tracé 3802" d="M179.006,144.16v.949H175.4v-.949Z" transform="translate(-109.356 -94.127)" fill="#2e353a"/>
      <path id="Tracé_3803" data-name="Tracé 3803" d="M183.726,144.16v.949H180.12v-.949Z" transform="translate(-109.598 -94.127)" fill="#2e353a"/>
      <path id="Tracé_3804" data-name="Tracé 3804" d="M188.436,144.16v.949h-3.6v-.949Z" transform="translate(-109.839 -94.127)" fill="#2e353a"/>
      <path id="Tracé_3805" data-name="Tracé 3805" d="M193.086,148.86l-3.966-10.57h.949l3.966,10.57Z" transform="translate(-110.058 -93.826)" fill="#2e353a"/>
      <path id="Tracé_3806" data-name="Tracé 3806" d="M156.316,127.94v.949h-3.6v-.949Z" transform="translate(-108.196 -93.297)" fill="#2e353a"/>
      <path id="Tracé_3807" data-name="Tracé 3807" d="M161.036,127.94v.949h-3.6v-.949Z" transform="translate(-108.438 -93.297)" fill="#2e353a"/>
      <path id="Tracé_3808" data-name="Tracé 3808" d="M165.806,127.94v.949H162.2v-.949Z" transform="translate(-108.681 -93.297)" fill="#2e353a"/>
      <path id="Tracé_3809" data-name="Tracé 3809" d="M170.476,127.94v.949H166.87v-.949Z" transform="translate(-108.92 -93.297)" fill="#2e353a"/>
      <path id="Tracé_3810" data-name="Tracé 3810" d="M175.186,127.94v.949h-3.6v-.949Z" transform="translate(-109.161 -93.297)" fill="#2e353a"/>
      <path id="Tracé_3811" data-name="Tracé 3811" d="M183.166,127.94v.949H179.56v-.949Z" transform="translate(-109.569 -93.297)" fill="#2e353a"/>
      <path id="Tracé_3812" data-name="Tracé 3812" d="M187.876,127.94v.949h-3.6v-.949Z" transform="translate(-109.81 -93.297)" fill="#2e353a"/>
      <path id="Tracé_3813" data-name="Tracé 3813" d="M192.6,127.94v.949H189v-.949Z" transform="translate(-110.052 -93.297)" fill="#2e353a"/>
      <path id="Tracé_3814" data-name="Tracé 3814" d="M197.316,127.94v.949H193.71v-.949Z" transform="translate(-110.293 -93.297)" fill="#2e353a"/>
      <path id="Tracé_3815" data-name="Tracé 3815" d="M202.026,127.94v.949h-3.6v-.949Z" transform="translate(-110.534 -93.297)" fill="#2e353a"/>
      <path id="Tracé_3816" data-name="Tracé 3816" d="M206.746,127.94v.949h-3.6v-.949Z" transform="translate(-110.775 -93.297)" fill="#2e353a"/>
      <path id="Tracé_3817" data-name="Tracé 3817" d="M211.466,127.94v.949H207.86v-.949Z" transform="translate(-111.016 -93.297)" fill="#2e353a"/>
      <path id="Tracé_3818" data-name="Tracé 3818" d="M219.436,127.94v.949h-3.6v-.949Z" transform="translate(-111.424 -93.297)" fill="#2e353a"/>
      <path id="Tracé_3819" data-name="Tracé 3819" d="M224.156,127.94v.949H220.55v-.949Z" transform="translate(-111.665 -93.297)" fill="#2e353a"/>
      <path id="Tracé_3820" data-name="Tracé 3820" d="M228.876,127.94v.949H225.27v-.949Z" transform="translate(-111.907 -93.297)" fill="#2e353a"/>
      <path id="Tracé_3821" data-name="Tracé 3821" d="M236.806,127.94v.949h-3.6v-.949Z" transform="translate(-112.313 -93.297)" fill="#2e353a"/>
      <path id="Tracé_3822" data-name="Tracé 3822" d="M241.568,127.94v.949H238v-.949Z" transform="translate(-112.558 -93.297)" fill="#2e353a"/>
      <path id="Tracé_3823" data-name="Tracé 3823" d="M246.286,127.94v.949H242.68v-.949Z" transform="translate(-112.797 -93.297)" fill="#2e353a"/>
      <path id="Tracé_3824" data-name="Tracé 3824" d="M264.026,127.94v.949h-3.6v-.949Z" transform="translate(-113.705 -93.297)" fill="#2e353a"/>
      <path id="Tracé_3825" data-name="Tracé 3825" d="M268.746,127.94v.949H265.14v-.949Z" transform="translate(-113.946 -93.297)" fill="#2e353a"/>
      <path id="Tracé_3826" data-name="Tracé 3826" d="M273.466,127.94v.949H269.86v-.949Z" transform="translate(-114.187 -93.297)" fill="#2e353a"/>
      <path id="Tracé_3827" data-name="Tracé 3827" d="M278.176,127.94v.949h-3.6v-.949Z" transform="translate(-114.428 -93.297)" fill="#2e353a"/>
      <path id="Tracé_3828" data-name="Tracé 3828" d="M282.9,127.94v.949H279.29v-.949Z" transform="translate(-114.669 -93.297)" fill="#2e353a"/>
      <path id="Tracé_3829" data-name="Tracé 3829" d="M290.866,127.94v.949h-3.6v-.949Z" transform="translate(-115.077 -93.297)" fill="#2e353a"/>
      <path id="Tracé_3830" data-name="Tracé 3830" d="M295.587,127.94v.949H292v-.949Z" transform="translate(-115.319 -93.297)" fill="#2e353a"/>
      <path id="Tracé_3831" data-name="Tracé 3831" d="M300.306,127.94v.949H296.7v-.949Z" transform="translate(-115.56 -93.297)" fill="#2e353a"/>
      <path id="Tracé_3832" data-name="Tracé 3832" d="M308.276,127.94v.949h-3.6v-.949Z" transform="translate(-115.968 -93.297)" fill="#2e353a"/>
      <path id="Tracé_3833" data-name="Tracé 3833" d="M316.256,127.94v.949H312.65v-.949Z" transform="translate(-116.375 -93.297)" fill="#2e353a"/>
    </g>
    <g id="Notebook--inject-1--inject-531" transform="translate(351.507 228.138)">
      <path id="Tracé_3834" data-name="Tracé 3834" d="M379.143,292.29,368.99,331.459l9.6,2.818Z" transform="translate(-368.99 -239.98)" fill="#fff" stroke="#2e353a" stroke-linecap="round" stroke-linejoin="round" stroke-width="1"/>
      <path id="Tracé_3835" data-name="Tracé 3835" d="M384.419,248.072a8.113,8.113,0,0,1-1.167-5.959c.522-3.862,5.181-4.744,5.181-4.744s1.015-.769,4.744.645,32.565,5.323,50.992,7.819,24.4.882,24.139,7.211-16.425,63.128-16.672,64.912S384.419,248.072,384.419,248.072Z" transform="translate(-369.712 -237.16)" fill="#fff" stroke="#2e353a" stroke-miterlimit="10" stroke-width="1"/>
      <rect id="Rectangle_443" data-name="Rectangle 443" width="78.224" height="93.245" transform="matrix(0.991, 0.134, -0.134, 0.991, 14.701, 10.914)" stroke-width="1" stroke="#2e353a" stroke-linecap="round" stroke-linejoin="round" fill="#fff"/>
      <line id="Ligne_456" data-name="Ligne 456" x2="4.507" y2="0.617" transform="translate(77.807 39.852)" fill="none" stroke="#2e353a" stroke-linecap="round" stroke-linejoin="round" stroke-width="0.5"/>
      <line id="Ligne_457" data-name="Ligne 457" x2="24.661" y2="3.349" transform="translate(49.578 36.028)" fill="none" stroke="#2e353a" stroke-linecap="round" stroke-linejoin="round" stroke-width="0.5"/>
      <line id="Ligne_458" data-name="Ligne 458" x2="26.321" y2="3.568" transform="translate(19.689 31.976)" fill="none" stroke="#2e353a" stroke-linecap="round" stroke-linejoin="round" stroke-width="0.5"/>
      <line id="Ligne_459" data-name="Ligne 459" x2="10.456" y2="1.423" transform="translate(70.747 47.263)" fill="none" stroke="#2e353a" stroke-linecap="round" stroke-linejoin="round" stroke-width="0.5"/>
      <line id="Ligne_460" data-name="Ligne 460" x2="41.475" y2="5.617" transform="translate(18.579 40.194)" fill="none" stroke="#2e353a" stroke-linecap="round" stroke-linejoin="round" stroke-width="0.5"/>
      <line id="Ligne_461" data-name="Ligne 461" x2="40.469" y2="5.484" transform="translate(39.624 51.409)" fill="none" stroke="#2e353a" stroke-linecap="round" stroke-linejoin="round" stroke-width="0.5"/>
      <line id="Ligne_462" data-name="Ligne 462" x2="18" y2="2.448" transform="translate(17.459 48.401)" fill="none" stroke="#2e353a" stroke-linecap="round" stroke-linejoin="round" stroke-width="0.5"/>
      <line id="Ligne_463" data-name="Ligne 463" x2="25.904" y2="3.511" transform="translate(53.07 61.6)" fill="none" stroke="#2e353a" stroke-linecap="round" stroke-linejoin="round" stroke-width="0.5"/>
      <line id="Ligne_464" data-name="Ligne 464" x2="19.015" y2="2.581" transform="translate(31.085 58.611)" fill="none" stroke="#2e353a" stroke-linecap="round" stroke-linejoin="round" stroke-width="0.5"/>
      <line id="Ligne_465" data-name="Ligne 465" x2="11.462" y2="1.556" transform="translate(16.349 56.618)" fill="none" stroke="#2e353a" stroke-linecap="round" stroke-linejoin="round" stroke-width="0.5"/>
      <line id="Ligne_466" data-name="Ligne 466" x2="9.27" y2="1.252" transform="translate(68.593 72.066)" fill="none" stroke="#2e353a" stroke-linecap="round" stroke-linejoin="round" stroke-width="0.5"/>
      <line id="Ligne_467" data-name="Ligne 467" x2="47.12" y2="6.386" transform="translate(15.239 64.835)" fill="none" stroke="#2e353a" stroke-linecap="round" stroke-linejoin="round" stroke-width="0.5"/>
      <line id="Ligne_468" data-name="Ligne 468" x2="26.208" y2="3.558" transform="translate(50.546 77.977)" fill="none" stroke="#2e353a" stroke-linecap="round" stroke-linejoin="round" stroke-width="0.5"/>
      <line id="Ligne_469" data-name="Ligne 469" x2="31.967" y2="4.336" transform="translate(14.119 73.043)" fill="none" stroke="#2e353a" stroke-linecap="round" stroke-linejoin="round" stroke-width="0.5"/>
      <line id="Ligne_470" data-name="Ligne 470" x2="16.994" y2="2.296" transform="translate(58.64 87.447)" fill="none" stroke="#2e353a" stroke-linecap="round" stroke-linejoin="round" stroke-width="0.5"/>
      <line id="Ligne_471" data-name="Ligne 471" x2="30.307" y2="4.109" transform="translate(24.177 82.769)" fill="none" stroke="#2e353a" stroke-linecap="round" stroke-linejoin="round" stroke-width="0.5"/>
      <line id="Ligne_472" data-name="Ligne 472" x2="7.6" y2="1.025" transform="translate(13.009 81.26)" fill="none" stroke="#2e353a" stroke-linecap="round" stroke-linejoin="round" stroke-width="0.5"/>
      <path id="Tracé_3836" data-name="Tracé 3836" d="M466.18,259.259s1.328-12.886,6.073-7.7" transform="translate(-373.96 -237.833)" fill="none" stroke="#2e353a" stroke-linecap="round" stroke-linejoin="round" stroke-width="1"/>
      <path id="Tracé_3837" data-name="Tracé 3837" d="M437.186,360.877l-.085,8.189-4.773-6.737L413.17,297.892l4.858-1.452Z" transform="translate(-371.249 -240.192)" fill="#fff" stroke="#2e353a" stroke-linecap="round" stroke-linejoin="round" stroke-width="1"/>
      <rect id="Rectangle_444" data-name="Rectangle 444" width="2.761" height="67.227" transform="translate(42.227 59.775) rotate(-16.26)" stroke-width="0.5" stroke="#2e353a" stroke-linecap="round" stroke-linejoin="round" fill="#c2a3cc"/>
      <path id="Tracé_3838" data-name="Tracé 3838" d="M438.219,364.37l-4.849,1.442,4.763,6.727Z" transform="translate(-372.282 -243.666)" fill="none" stroke="#2e353a" stroke-linecap="round" stroke-linejoin="round" stroke-width="1"/>
      <path id="Tracé_3839" data-name="Tracé 3839" d="M435.88,369.391l2.382,3.368.047-4.09Z" transform="translate(-372.411 -243.886)" fill="#2e353a" stroke="#2e353a" stroke-linecap="round" stroke-linejoin="round" stroke-width="1"/>
      <path id="Tracé_3840" data-name="Tracé 3840" d="M413.372,289.594h0a2.543,2.543,0,0,0-1.708,3.15l1.423,4.792,4.858-1.442-1.423-4.792A2.543,2.543,0,0,0,413.372,289.594Z" transform="translate(-371.167 -239.836)" fill="#fff" stroke="#2e353a" stroke-linecap="round" stroke-linejoin="round" stroke-width="1"/>
      <path id="Tracé_3841" data-name="Tracé 3841" d="M413.372,289.594h0a2.543,2.543,0,0,0-1.708,3.15l.683,2.287,4.849-1.442-.674-2.287A2.543,2.543,0,0,0,413.372,289.594Z" transform="translate(-371.167 -239.836)" fill="#2e353a" stroke="#2e353a" stroke-linecap="round" stroke-linejoin="round" stroke-width="1"/>
    </g>
    <g id="Character--inject-1--inject-531" transform="translate(105.372 223.024)">
      <path id="Tracé_3842" data-name="Tracé 3842" d="M161.553,249.49c-.607.854-1.205,1.746-1.8,2.685" transform="translate(-112.155 -232.676)" fill="none" stroke="#fff" stroke-linecap="round" stroke-linejoin="round" stroke-width="1"/>
      <path id="Tracé_3843" data-name="Tracé 3843" d="M171.716,237.45a68.487,68.487,0,0,0-7.316,7.942" transform="translate(-112.393 -232.06)" fill="none" stroke="#fff" stroke-linecap="round" stroke-linejoin="round" stroke-width="1"/>
      <path id="Tracé_3844" data-name="Tracé 3844" d="M160.381,242.76a101.178,101.178,0,0,0-7.031,11.386" transform="translate(-111.828 -232.332)" fill="none" stroke="#fff" stroke-linecap="round" stroke-linejoin="round" stroke-width="1"/>
      <path id="Tracé_3845" data-name="Tracé 3845" d="M231.193,264.75c-.6.854-1.205,1.746-1.8,2.676" transform="translate(-115.716 -233.457)" fill="none" stroke="#fff" stroke-linecap="round" stroke-linejoin="round" stroke-width="1"/>
      <path id="Tracé_3846" data-name="Tracé 3846" d="M241.356,252.71a68.991,68.991,0,0,0-7.306,7.942" transform="translate(-115.955 -232.841)" fill="none" stroke="#fff" stroke-linecap="round" stroke-linejoin="round" stroke-width="1"/>
      <path id="Tracé_3847" data-name="Tracé 3847" d="M230.031,258A102.678,102.678,0,0,0,223,269.443" transform="translate(-115.39 -233.111)" fill="none" stroke="#fff" stroke-linecap="round" stroke-linejoin="round" stroke-width="1"/>
      <path id="Tracé_3848" data-name="Tracé 3848" d="M330.964,239.9c-.863-.588-1.774-1.177-2.714-1.765" transform="translate(-120.772 -232.096)" fill="none" stroke="#fff" stroke-linecap="round" stroke-linejoin="round" stroke-width="1"/>
      <path id="Tracé_3849" data-name="Tracé 3849" d="M342.876,249.893a69.653,69.653,0,0,0-8.056-7.183" transform="translate(-121.108 -232.329)" fill="none" stroke="#fff" stroke-linecap="round" stroke-linejoin="round" stroke-width="1"/>
      <path id="Tracé_3850" data-name="Tracé 3850" d="M337.208,238.63a102.8,102.8,0,0,0-11.538-6.86" transform="translate(-120.64 -231.77)" fill="none" stroke="#fff" stroke-linecap="round" stroke-linejoin="round" stroke-width="1"/>
      <path id="Tracé_3851" data-name="Tracé 3851" d="M228.144,302c-.493,3.568-1.234,8.54-1.974,11.491" transform="translate(-115.552 -235.361)" fill="none" stroke="#2e353a" stroke-linecap="round" stroke-linejoin="round" stroke-width="1"/>
      <path id="Tracé_3852" data-name="Tracé 3852" d="M228.818,297.43s-.076.674-.218,1.765" transform="translate(-115.676 -235.128)" fill="none" stroke="#2e353a" stroke-linecap="round" stroke-linejoin="round" stroke-width="1"/>
      <path id="Tracé_3853" data-name="Tracé 3853" d="M231.3,308.1a80.227,80.227,0,0,1-3.8,10.124" transform="translate(-115.62 -235.673)" fill="none" stroke="#2e353a" stroke-linecap="round" stroke-linejoin="round" stroke-width="1"/>
      <path id="Tracé_3854" data-name="Tracé 3854" d="M281.5,313.43s.636,8.227,5.057,12.658" transform="translate(-118.381 -235.946)" fill="none" stroke="#2e353a" stroke-linecap="round" stroke-linejoin="round" stroke-width="1"/>
      <path id="Tracé_3855" data-name="Tracé 3855" d="M280.83,322.1s1.9,5.693,5.693,8.227" transform="translate(-118.347 -236.389)" fill="none" stroke="#2e353a" stroke-linecap="round" stroke-linejoin="round" stroke-width="1"/>
      <path id="Tracé_3856" data-name="Tracé 3856" d="M145,362s4.213-3.387,4.213-32.508,4.849-50.394,10.827-59.721S171.606,256.7,174.225,256.7s.74,3.359-2.989,8.208-7.088,7.468-8.587,13.445-1.49,13.436.38,12.686,4.849-15.675,7.458-21.273,8.967-12.7,12.7-16.055,11.946-13.436,15.675-10.826,1.5,6.348-.74,7.838-11.206,10.437-15.305,16.055-6.718,19.784-4.479,20.154,8.957-20.524,12.686-25,18.664-16.8,22.023-17.174,3.739,4.849.75,7.468-13.066,13.806-16.425,20.524-4.858,19.044-1.9,16.055,7.838-15.305,11.946-19.414,16.425-17.165,19.414-15.675,2.239,5.228-.37,7.838-12.7,16.8-15.305,24.262-5.608,28.371-4.109,25.392,6.348-18.294,8.957-24.67,7.838-9.327,8.587-6.348-.75,4.479-2.619,11.206-1.9,24.67-7.458,34.709-27.878,31.521-30.857,38.979a101.645,101.645,0,0,1-7.7,14.8" transform="translate(-111.401 -232.317)" fill="#c2a3cc" style="mix-blend-mode: multiply;isolation: isolate"/>
      <path id="Tracé_3857" data-name="Tracé 3857" d="M359.03,364.521s-4.317-5.911-4.317-35.032-4.858-50.394-10.827-59.721S332.31,256.7,329.7,256.7s-.75,3.359,2.989,8.208,7.088,7.468,8.54,13.445,1.5,13.436-.37,12.686-4.849-15.675-7.468-21.273-8.957-12.7-12.686-16.055-11.946-13.436-15.685-10.826-1.49,6.348.75,7.838,11.2,10.437,15.305,16.055,6.718,19.784,4.479,20.154-8.929-20.524-12.658-24.983-18.674-16.8-22.033-17.174-3.729,4.849-.74,7.468,13.066,13.806,16.425,20.524,4.849,19.044,1.9,16.055-7.838-15.305-11.937-19.414-16.425-17.165-19.414-15.675-2.239,5.228.37,7.838,12.7,16.8,15.305,24.262,5.6,28.371,4.109,25.392-6.348-18.294-8.957-24.67-7.838-9.327-8.587-6.348.75,4.479,2.609,11.206,1.9,24.67,7.468,34.709,27.251,29.633,30.24,37.1,8.4,19.233,8.4,19.233" transform="translate(-118.057 -232.317)" fill="#c2a3cc" style="mix-blend-mode: multiply;isolation: isolate"/>
      <path id="Tracé_3858" data-name="Tracé 3858" d="M143.5,368.753s5.6-18.285,5.6-47.443,4.849-50.394,10.827-59.721,11.567-13.066,14.185-13.066.74,3.359-2.989,8.208-7.088,7.468-8.587,13.436-1.49,13.445.38,12.7,4.849-15.675,7.458-21.273,8.967-12.7,12.7-16.055,11.946-13.436,15.675-10.827,1.5,6.348-.74,7.838S186.8,252.982,182.7,258.6s-6.718,19.784-4.479,20.154,8.957-20.524,12.686-25.012,18.664-16.795,22.023-17.165,3.739,4.849.75,7.468-13.066,13.806-16.425,20.524-4.858,19.044-1.9,16.055,7.838-15.305,11.946-19.414,16.425-17.165,19.414-15.675,2.239,5.228-.37,7.838-12.7,16.795-15.305,24.262-5.608,28.371-4.109,25.382,6.348-18.285,8.957-24.67,7.838-9.337,8.587-6.348-.75,4.479-2.619,11.2-1.9,24.67-7.458,34.719-27.251,37.328-30.24,44.8-9.707,23.892-9.707,23.892" transform="translate(-111.324 -231.898)" fill="#fff" stroke="#2e353a" stroke-linecap="round" stroke-linejoin="round" stroke-width="1"/>
      <path id="Tracé_3859" data-name="Tracé 3859" d="M360.3,368.753s-5.6-18.285-5.6-47.443-4.858-50.394-10.827-59.721-11.576-13.066-14.185-13.066-.75,3.359,2.989,8.208,7.088,7.468,8.54,13.436,1.5,13.445-.37,12.7S336,267.187,333.38,261.588s-8.957-12.7-12.686-16.055-11.946-13.436-15.685-10.827-1.49,6.348.75,7.838,11.2,10.437,15.305,16.055,6.718,19.784,4.479,20.154-8.957-20.524-12.686-25.012-18.674-16.795-22.033-17.165-3.729,4.849-.74,7.468,13.066,13.806,16.425,20.524,4.849,19.044,1.9,16.055-7.838-15.305-11.937-19.414-16.425-17.165-19.414-15.675-2.239,5.228.37,7.838,12.7,16.795,15.305,24.262,5.6,28.371,4.109,25.382-6.348-18.285-8.957-24.67-7.838-9.337-8.587-6.348.75,4.479,2.609,11.2,1.9,24.67,7.468,34.719,27.251,37.328,30.24,44.8,9.707,23.892,9.707,23.892" transform="translate(-118.055 -231.898)" fill="#fff" stroke="#2e353a" stroke-linecap="round" stroke-linejoin="round" stroke-width="1"/>
      <path id="Tracé_3860" data-name="Tracé 3860" d="M118.6,432.508h56.932c.74-2.847,1.67-6.035,2.847-9.489,4.479-13.417,18.977-30.193,18.977-30.193a98.131,98.131,0,0,0-35.829-20.1c-21.824-6.718-37.8-4.744-37.8-4.744a87.836,87.836,0,0,1,.949,37.006C121.826,418.806,119.928,427.545,118.6,432.508Z" transform="translate(-110.051 -238.722)" fill="#2e353a" stroke="#2e353a" stroke-linecap="round" stroke-linejoin="round" stroke-width="1"/>
      <path id="Tracé_3861" data-name="Tracé 3861" d="M328.186,432.727h59.152c-1.9-4.915-6-15.59-10.1-26.264-5.6-14.537-3.359-34.1-5.6-34.1s-27.394-1.679-39.691,2.23-26.283,15.1-26.283,15.1a123.607,123.607,0,0,1,16.216,24.063,83.224,83.224,0,0,1,6.3,18.977Z" transform="translate(-119.617 -238.941)" fill="#2e353a" stroke="#2e353a" stroke-linecap="round" stroke-linejoin="round" stroke-width="1"/>
      <path id="Tracé_3862" data-name="Tracé 3862" d="M153.7,379.83c-.408-1.613-6.481.816-6.481.816s2.031-7.686-1.205-7.686-3.644,5.693-3.644,5.693-6.073-2.42-6.073,1.215,4.042,3.568,4.042,3.568-4.858,6.073-1.215,7.278,6.063-3.236,6.063-3.236,2.429,4.052,5.693,2.429.807-5.257.807-5.257S154.1,381.452,153.7,379.83Zm-8.094,6.073a1.661,1.661,0,1,1,2.021-1.623A1.9,1.9,0,0,1,145.609,385.9ZM162.6,425.185c-.408-1.613-6.481.816-6.481.816s2.031-7.686-1.215-7.686-3.634,5.693-3.634,5.693-6.073-2.429-6.073,1.205,4.052,3.644,4.052,3.644-4.858,6.073-1.215,7.287S154.1,432.9,154.1,432.9s2.429,4.052,5.693,2.429.807-5.257.807-5.257S163,426.76,162.6,425.185Zm-8.094,6.073a1.66,1.66,0,1,1,2.021-1.623,1.85,1.85,0,0,1-2.021,1.575Zm-27.517,0c-.408-1.623-6.471.807-6.471.807s2.021-7.686-1.215-7.686-3.644,5.693-3.644,5.693-6.073-2.429-6.073,1.215,4.052,3.644,4.052,3.644-4.858,6.063-1.215,7.278,6.063-3.236,6.063-3.236,2.429,4.042,5.693,2.429.816-5.257.816-5.257,2.4-3.321,2-4.934Zm-8.094,6.063a1.66,1.66,0,1,1,2.021-1.613,1.85,1.85,0,0,1-2.012,1.566ZM171.086,399.7h4.45c3.236,0,5.257,3.644,5.257,3.644a8.034,8.034,0,0,1-9.7-3.691Zm-4.45,31.559h4.45c3.236,0,5.257,3.644,5.257,3.644a8.035,8.035,0,0,1-9.7-3.691Zm-38.827-6.073h4.45c3.236,0,5.257,3.644,5.257,3.644C130.636,430.8,127.808,425.185,127.808,425.185Zm21.511-28.551,2.6,3.615c1.9,2.638.1,6.4.1,6.4-5.655-4.45-2.7-10.058-2.7-10.058Zm-22.26,12.088,2.031-3.957c1.49-2.847,5.646-3.017,5.646-3.017C133.34,408.789,127.059,408.723,127.059,408.723Z" transform="translate(-109.59 -238.99)" fill="#fff"/>
      <path id="Tracé_3863" data-name="Tracé 3863" d="M355.255,387.93c-.408-1.613-6.481.816-6.481.816s2.031-7.686-1.205-7.686-3.644,5.693-3.644,5.693-6.073-2.42-6.073,1.215,4.052,3.644,4.052,3.644-4.858,6.073-1.215,7.287,6.063-3.245,6.063-3.245,2.429,4.052,5.693,2.429.807-5.257.807-5.257S355.653,389.543,355.255,387.93ZM347.161,394a1.66,1.66,0,1,1,2.021-1.623A1.85,1.85,0,0,1,347.161,394Zm27.1,25.486c-.4-1.623-6.471.807-6.471.807s2.021-7.686-1.215-7.686-3.634,5.693-3.634,5.693-6.073-2.429-6.073,1.215,4.042,3.644,4.042,3.644-4.849,6.063-1.205,7.278,6.063-3.236,6.063-3.236,2.429,4.042,5.693,2.429.807-5.257.807-5.257S374.668,421.1,374.26,419.489Zm-8.084,6.111a1.66,1.66,0,1,1,2.021-1.613A1.85,1.85,0,0,1,366.176,425.6Zm-12.136,6.073c-.408-1.623-6.471.807-6.471.807s2.021-7.686-1.215-7.686-3.644,5.693-3.644,5.693-6.073-2.429-6.073,1.215,4.052,3.644,4.052,3.644-4.858,6.063-1.215,7.278,6.063-3.236,6.063-3.236,2.429,4.042,5.693,2.429.816-5.257.816-5.257,2.363-3.321,1.993-4.934Zm-8.094,6.063a1.66,1.66,0,1,1,2.021-1.613,1.85,1.85,0,0,1-2.021,1.566Zm26.7-29.937h4.45c3.236,0,5.257,3.644,5.257,3.644a8.042,8.042,0,0,1-9.707-3.691ZM324.91,430.818h4.45c3.236,0,5.257,3.634,5.257,3.634C327.738,436.483,324.91,430.818,324.91,430.818Zm25.961-26.094,2.6,3.615c1.9,2.638.1,6.4.1,6.4C347.92,410.294,350.871,404.725,350.871,404.725Zm26.312,22.621,2.59,3.615c1.9,2.628.1,6.4.1,6.4A7.981,7.981,0,0,1,377.183,427.345Zm-48.61-10.523,2.031-3.957c1.49-2.847,5.693-3.017,5.693-3.017a8.078,8.078,0,0,1-7.733,6.974Z" transform="translate(-120.601 -239.405)" fill="#fff"/>
    </g>
  </g>
</svg>
