<svg id="Startup_life-bro" data-name="Startup life-bro" xmlns="http://www.w3.org/2000/svg" xmlns:xlink="http://www.w3.org/1999/xlink" width="300" height="240.22" viewBox="0 0 300 240.22">
  <defs>
    <clipPath id="clip-path">
      <path id="Tracé_1326" data-name="Tracé 1326" d="M298.12,161.525a48.88,48.88,0,0,1,4.173,34.492C297.457,215.6,284.057,238.2,284.057,238.2l-16.692-5.514s1.318-32.5,8.346-47.885S295.717,161.126,298.12,161.525Z" transform="translate(-267.364 -161.512)" fill="#c2a3cc" stroke="#263238" stroke-linecap="round" stroke-linejoin="round" stroke-width="1"/>
    </clipPath>
    <clipPath id="clip-path-2">
      <path id="Tracé_1339" data-name="Tracé 1339" d="M233.834,232.724s-3.209.964-11.819-3.894l-2.365,9.3s6.109,2.636,15.141,1.394Z" transform="translate(-219.65 -228.83)" fill="#fff" stroke="#263238" stroke-linecap="round" stroke-linejoin="round" stroke-width="1"/>
    </clipPath>
    <clipPath id="clip-path-3">
      <path id="Tracé_1349" data-name="Tracé 1349" d="M270.557,184.047s5.634,10.35,4.565,19.028-4.565,17.325-5.476,21.152,1.981,12.806,1.371,15.517-13.393,4.113-24.353,4.572-15.819-2.441-16.436-5.484-.911-2.584-.452-8.218,5.476-35.456,8.519-41.242,17.5-10.8,19.939-11.427S267.386,178.269,270.557,184.047Z" transform="translate(-229.551 -177.779)" fill="#fff" stroke="#263238" stroke-linecap="round" stroke-linejoin="round" stroke-width="1"/>
    </clipPath>
    <clipPath id="clip-path-4">
      <path id="Tracé_1357" data-name="Tracé 1357" d="M245.327,172.872s-5.574,15.3-7.171,14.817-7.97-11.3-8.286-13.386,1.913-7.013,1.913-7.013a42.236,42.236,0,0,1,8.768,3.186A52.037,52.037,0,0,1,245.327,172.872Z" transform="translate(-229.839 -167.29)" fill="#fff" stroke="#263238" stroke-linecap="round" stroke-linejoin="round" stroke-width="1"/>
    </clipPath>
    <clipPath id="clip-path-5">
      <path id="Tracé_1366" data-name="Tracé 1366" d="M232.791,242.781s6.7-5.167,8.67-6.538,6.546.452,8.068.452,3.5,1.507,3.194,2.591a3.864,3.864,0,0,1-1.507,1.823s1.07,1.83.158,3.2a4.572,4.572,0,0,0-.919,2.26A6.779,6.779,0,0,1,248.783,249c-.911.61-2.893.911-5.326.911s-6.7-1.672-6.7-1.672l-4.264-.151Z" transform="translate(-232.497 -235.732)" fill="#fff" stroke="#263238" stroke-linecap="round" stroke-linejoin="round" stroke-width="1"/>
    </clipPath>
    <clipPath id="clip-path-6">
      <path id="Tracé_1370" data-name="Tracé 1370" d="M291.576,188.229s5.476,5.017,3.345,11.713-10.968,12.934-13.227,15.977a49.2,49.2,0,0,1-5.484,5.936s6.855,3.352,11.721,5.484a61.063,61.063,0,0,0,8.519,3.013l-.151,5.778s-16.738.753-24.5-2.26-13.393-6.847-13.393-11.412,9.725-13.077,14.907-21.295,8.979-12.482,14.146-13.242" transform="translate(-258.41 -187.92)" fill="#fff" stroke="#263238" stroke-linecap="round" stroke-linejoin="round" stroke-width="1"/>
    </clipPath>
    <clipPath id="clip-path-7">
      <path id="Tracé_1376" data-name="Tracé 1376" d="M234.184,141.433a44.978,44.978,0,0,1,1.559,4.52,11.5,11.5,0,0,0,3.488,5.077c1.152.716,3.842,1.717,2.659,3.013a13.219,13.219,0,0,1-3.548,2.3s.927,5.348.339,8.429-2.757,3.6-4.723,3.571-9.386-.911-11.894-3.925-6.546-12.542-4.565-18.734S230.673,135.55,234.184,141.433Z" transform="translate(-216.969 -138.543)" fill="#fff" stroke="#263238" stroke-linecap="round" stroke-linejoin="round" stroke-width="1"/>
    </clipPath>
    <clipPath id="clip-path-8">
      <path id="Tracé_1384" data-name="Tracé 1384" d="M258.092,140.724s-12.3,3.375-12.565,5.732,1.906,7.329.753,12.339-7.977,6.463-13.672,4.52-9.793-12.429-9.039-21.092,9.574-13.717,16.474-15.02S257.421,130.894,258.092,140.724Z" transform="translate(-223.48 -126.999)" fill="#c2a3cc" stroke="#263238" stroke-linecap="round" stroke-linejoin="round" stroke-width="1"/>
    </clipPath>
  </defs>
  <g id="background-simple--inject-86" transform="translate(0 0)">
    <path id="Tracé_1310" data-name="Tracé 1310" d="M61.594,313.935H333.284s10.8,3.563,16.76-24.526-24.707-35.569-32-59.795,24.519-19.126,21.845-52.277-46.364-33.792-67.568-29.325-18.553-10.84-43.072-36.345-61.633-22.952-80.178-3.186-12.595,40.164-35.788,40.164-44.4,4.467-58.311,47.177,11.518,62.235,11.058,81.489A207.541,207.541,0,0,1,61.594,313.935Z" transform="translate(-50.807 -93.096)" fill="#c2a3cc"/>
    <path id="Tracé_1311" data-name="Tracé 1311" d="M61.594,313.935H333.284s10.8,3.563,16.76-24.526-24.707-35.569-32-59.795,24.519-19.126,21.845-52.277-46.364-33.792-67.568-29.325-18.553-10.84-43.072-36.345-61.633-22.952-80.178-3.186-12.595,40.164-35.788,40.164-44.4,4.467-58.311,47.177,11.518,62.235,11.058,81.489A207.541,207.541,0,0,1,61.594,313.935Z" transform="translate(-50.807 -93.096)" fill="#fff" opacity="0.7"/>
  </g>
  <g id="Chart--inject-86" transform="translate(24.444 25.139)">
    <path id="Tracé_1312" data-name="Tracé 1312" d="M324.022,150.071V326.058h6.629V142.26Zm-93.051,73.263,2.388-2.561V326.058H226.73V221.843Zm41.309-44.307V326.058h-6.636V186.138Zm19.457-.972v148h-6.629v-150.1Zm19.457-12.919V326.058h-6.629V172.948ZM252.816,199.9V326.058h-6.629V207.041ZM136.059,244.177v81.88H129.43v-75.8Zm19.457-17.845v99.725h-6.629V232.411Zm58.371-8.994V326.058h-6.629V215Zm-38.914-8.858V326.058h-6.629V214.574ZM194.43,210.5V326.058H187.8V208.171Z" transform="translate(-114.319 -130.366)" opacity="0.07"/>
    <path id="Tracé_1313" data-name="Tracé 1313" d="M127.02,262.781l64.465-58.815,55.222,21.641,43.456-53.181,20.911,6.734,34.093-41.091" transform="translate(-127.02 -129.332)" fill="none" stroke="#c2a3cc" stroke-linecap="round" stroke-linejoin="round" stroke-width="3"/>
    <path id="Tracé_1314" data-name="Tracé 1314" d="M117.4,131.946l14.787-5.476-2.652,15.548Z" transform="translate(93.207 -126.47)" fill="#c2a3cc"/>
  </g>
  <g id="Gears--inject-86" transform="translate(25.815 74.102)">
    <path id="Tracé_1315" data-name="Tracé 1315" d="M124.587,350.087l-2.727-1.243.58-3.269,3.013-.234a13.25,13.25,0,0,1,1.507-2.855l-1.552-2.614,2.35-2.35,2.636,1.567a13.159,13.159,0,0,1,5.039-2.056l.753-3.013h3.322l.753,3.013a13.319,13.319,0,0,1,3.013.949l2.38-2.056,2.712,1.921-1.122,2.945a12.994,12.994,0,0,1,1.876,2.478l3.134-.324,1.168,3.111-2.591,1.763a13.269,13.269,0,0,1,.188,2.2v.934l2.727,1.507-.866,3.216-3.081-.045a13.115,13.115,0,0,1-1.695,2.7l1.3,2.795-2.546,2.139-2.471-1.77a13.265,13.265,0,0,1-2.968,1.258l-.5,3.013-3.307.294-1-2.825a13.114,13.114,0,0,1-3.186-.685l-2.087,2.124-2.878-1.665.753-2.862a13.409,13.409,0,0,1-2.207-2.41l-2.923.542-1.409-3.013,2.26-1.9a13.424,13.424,0,0,1-.346-3.277Zm4.919-.06a8.279,8.279,0,1,1,.03,0Z" transform="translate(66.917 -226.641)" fill="#fff"/>
    <path id="Tracé_1316" data-name="Tracé 1316" d="M97.837,309.36l-2.727-1.243.58-3.277,3.013-.234a13.026,13.026,0,0,1,1.507-2.847l-1.552-2.621,2.35-2.35,2.644,1.552a13.182,13.182,0,0,1,5.039-2.056l.753-3.013h3.322l.753,3.013a13,13,0,0,1,3.013.949l2.38-2.056,2.719,1.906-1.122,2.938a13.34,13.34,0,0,1,1.913,2.478l3.073-.286,1.137,3.126-2.591,1.755a13.287,13.287,0,0,1,.188,2.207,7.687,7.687,0,0,1-.038.934l2.727,1.507-.859,3.209-3.088-.038a13.274,13.274,0,0,1-1.695,2.689l1.333,2.772-2.546,2.132-2.471-1.763a12.9,12.9,0,0,1-2.968,1.25l-.5,3.013-3.307.286-1-2.817a13.121,13.121,0,0,1-3.186-.693l-2.087,2.124-2.877-1.665.791-2.862a13.136,13.136,0,0,1-2.215-2.4l-2.923.535L95.916,314.5l2.3-1.891A13.468,13.468,0,0,1,97.837,309.36Zm4.919-.06a8.286,8.286,0,1,0,8.286-8.286,8.286,8.286,0,0,0-8.286,8.286Z" transform="translate(113.892 -216.587)" fill="#fff"/>
    <path id="Tracé_1317" data-name="Tracé 1317" d="M103.2,231.834l-6.606-3.013,1.4-7.939,7.292-.565a31.638,31.638,0,0,1,3.646-6.907l-3.766-6.35,5.7-5.7,6.4,3.766a31.924,31.924,0,0,1,12.218-4.987l1.853-7.307h8.06l1.853,7.359a31.388,31.388,0,0,1,7.246,2.3l5.763-4.987,6.606,4.625-2.727,7.126a32.119,32.119,0,0,1,4.633,6.026l7.585-.753,2.757,7.533-6.282,4.264a32.111,32.111,0,0,1,.459,5.356,18.9,18.9,0,0,1-.09,2.26l6.606,3.691-2.087,7.789-7.48-.1a31.8,31.8,0,0,1-4.105,6.531l3.224,6.712-6.169,5.183-6.026-4.286a31.78,31.78,0,0,1-7.209,3.013l-1.2,7.216-8.03.708-2.418-6.84a31.674,31.674,0,0,1-7.729-1.672l-5.07,5.152L112.537,263l1.913-6.945a32.392,32.392,0,0,1-5.363-5.845L102,251.525l-3.4-7.307,5.6-4.557a32.39,32.39,0,0,1-1-7.826Zm11.924-.136a20.127,20.127,0,1,0,20.127-20.127A20.127,20.127,0,0,0,115.12,231.7Z" transform="translate(65.89 -191.806)" fill="#fff"/>
  </g>
  <g id="Plants--inject-86" transform="translate(5.016 120.757)">
    <path id="Tracé_1319" data-name="Tracé 1319" d="M322.96,294.372c1.507,3.766,3.1.753,2.855-15.1-.113-7.427-.64-22.6-8.851-19.261-7.894,3.209,2.508,25.611,2.508,25.611Zm-11.3,2.26s-17.129-17.845-10.7-23.442c6.682-5.83,12.105,8.354,14.629,15.337,5.386,14.915,4.889,18.3,2.207,15.216Zm-3.616,16.014s-15.676-11.163-11.578-16.376c4.271-5.424,10.47,4.633,13.408,9.612,6.275,10.621,6.388,13.28,3.894,11.3ZM303.8,328.608s-15.676-11.156-11.578-16.369c4.264-5.424,10.463,4.633,13.408,9.612,6.275,10.614,6.38,13.28,3.894,11.3Zm27.381-32.1s21.935-11.42,25.506-3.684c3.714,8.052-11.427,9.273-18.832,9.725-15.819.979-18.93-.452-15.224-2.154ZM328.1,309.076s23.766-6.825,25.724,1.461c2.041,8.632-13.039,6.817-20.391,5.793-15.7-2.192-18.463-4.211-14.493-5.137Zm-5.446,13.71s20.263-5.228,21.724,1.83c1.507,7.344-11.179,5.461-17.378,4.422-13.227-2.215-15.517-3.985-12.135-4.678Zm-3.171,11.3s19.585-7.352,21.8-.49c2.26,7.141-10.546,6.621-16.813,6.245-13.386-.8-15.819-2.313-12.565-3.367ZM332.6,276.768s8.941-27.8,19.088-22.749c10.546,5.273-1.635,17.792-7.744,23.788-13.032,12.806-17.062,13.7-15.344,9.235Z" transform="translate(-243.625 -253.407)" fill="#fff"/>
    <path id="Tracé_1320" data-name="Tracé 1320" d="M343.63,267.38s-22.463,27.4-27.871,41.121c-6.169,15.766-10.38,33.521-11.209,48.209" transform="translate(-239.783 -256.854)" fill="none" stroke="#ccc" stroke-linecap="round" stroke-linejoin="round" stroke-width="1.252"/>
    <line id="Ligne_138" data-name="Ligne 138" x1="3.126" y1="26.131" transform="translate(77.355 16.567)" fill="none" stroke="#ccc" stroke-linecap="round" stroke-linejoin="round" stroke-width="1.252"/>
    <line id="Ligne_139" data-name="Ligne 139" x1="11.299" y1="21.965" transform="translate(64.707 29.681)" fill="none" stroke="#ccc" stroke-linecap="round" stroke-linejoin="round" stroke-width="1.252"/>
    <line id="Ligne_140" data-name="Ligne 140" y1="4.821" x2="23.668" transform="translate(77.656 43.572)" fill="none" stroke="#ccc" stroke-linecap="round" stroke-linejoin="round" stroke-width="1.252"/>
    <line id="Ligne_141" data-name="Ligne 141" x1="13.913" y1="15.856" transform="translate(57.649 48.257)" fill="none" stroke="#ccc" stroke-linecap="round" stroke-linejoin="round" stroke-width="1.252"/>
    <line id="Ligne_142" data-name="Ligne 142" y1="0.158" x2="17.868" transform="translate(73.505 58.735)" fill="none" stroke="#ccc" stroke-linecap="round" stroke-linejoin="round" stroke-width="1.252"/>
    <line id="Ligne_143" data-name="Ligne 143" x2="13.702" y2="0.542" transform="translate(70.07 71.857)" fill="none" stroke="#ccc" stroke-linecap="round" stroke-linejoin="round" stroke-width="1.252"/>
    <line id="Ligne_144" data-name="Ligne 144" x1="7.337" y1="9.777" transform="translate(59.916 70.358)" fill="none" stroke="#ccc" stroke-linecap="round" stroke-linejoin="round" stroke-width="1.252"/>
    <line id="Ligne_145" data-name="Ligne 145" y1="0.798" x2="16.022" transform="translate(66.718 82.975)" fill="none" stroke="#ccc" stroke-linecap="round" stroke-linejoin="round" stroke-width="1.252"/>
    <path id="Tracé_1321" data-name="Tracé 1321" d="M393.123,324.875c2.765,1.04,1.913-1.288-6.636-8.949-4.007-3.586-12.339-10.764-14.6-4.753-2.169,5.77,14.877,11.3,14.877,11.3Zm-4.354,7.1s-17.905.339-17.724-5.83c.181-6.418,10.4-2.335,15.352-.241,10.546,4.467,12.128,6.4,9.175,6.3Zm6.779,9.793s-13.649,2.855-14.4-1.891c-.753-4.934,7.608-3.284,11.7-2.4,8.738,1.876,10.207,3.126,7.932,3.488Zm6.4,10.109s-13.642,2.847-14.4-1.891c-.753-4.934,7.616-3.292,11.706-2.41,8.73,1.883,10.2,3.134,7.932,3.5Zm-3.616-30.349s4.708-17.28,10.546-15.374c6.109,1.981-.685,10.636-4.083,14.8-7.254,8.9-9.544,9.845-8.632,7.036Zm5.167,7.826s8.052-16,13.423-12.971c5.589,3.164-2.787,10.29-6.945,13.694-8.881,7.277-11.3,7.751-9.86,5.182Zm4.618,9.627s7.179-13.34,11.646-10.651c4.663,2.795-2.591,8.632-6.184,11.42-7.683,5.943-9.747,6.29-8.459,4.151Zm4.459,7.246S418.3,332.2,423.035,334.4c4.926,2.26-1.665,8.858-4.949,12.007-7,6.734-9.039,7.292-7.962,5.032Zm-24.044-35.148s-10.388-18.417-2.712-21.333c7.992-3.013,8.655,9.612,8.843,15.819.407,13.227-1.092,15.819-2.629,12.7Z" transform="translate(-371.043 -262.261)" fill="#fff"/>
    <path id="Tracé_1322" data-name="Tracé 1322" d="M380.08,299.36s3.54,25.415,8.2,35.02c5.348,11.028,13.416,22.771,20.828,30.44" transform="translate(-362.151 -264.745)" fill="none" stroke="#ccc" stroke-linecap="round" stroke-linejoin="round" stroke-width="1.252"/>
    <line id="Ligne_146" data-name="Ligne 146" x1="15.442" y1="11.186" transform="translate(8.122 51.669)" fill="none" stroke="#ccc" stroke-linecap="round" stroke-linejoin="round" stroke-width="1.252"/>
    <line id="Ligne_147" data-name="Ligne 147" x1="17.242" y1="4.791" transform="translate(8.882 64.844)" fill="none" stroke="#ccc" stroke-linecap="round" stroke-linejoin="round" stroke-width="1.252"/>
    <line id="Ligne_148" data-name="Ligne 148" y1="14.96" x2="9.062" transform="translate(25.206 52.197)" fill="none" stroke="#ccc" stroke-linecap="round" stroke-linejoin="round" stroke-width="1.252"/>
    <line id="Ligne_149" data-name="Ligne 149" x1="15.276" y1="0.392" transform="translate(15.293 77.732)" fill="none" stroke="#ccc" stroke-linecap="round" stroke-linejoin="round" stroke-width="1.252"/>
    <line id="Ligne_150" data-name="Ligne 150" y1="9.582" x2="8.7" transform="translate(28.746 64.942)" fill="none" stroke="#ccc" stroke-linecap="round" stroke-linejoin="round" stroke-width="1.252"/>
    <line id="Ligne_151" data-name="Ligne 151" y1="7.02" x2="7.028" transform="translate(33.951 75.706)" fill="none" stroke="#ccc" stroke-linecap="round" stroke-linejoin="round" stroke-width="1.252"/>
    <line id="Ligne_152" data-name="Ligne 152" x1="8.806" y1="0.904" transform="translate(28.166 87.389)" fill="none" stroke="#ccc" stroke-linecap="round" stroke-linejoin="round" stroke-width="1.252"/>
    <line id="Ligne_153" data-name="Ligne 153" y1="8.911" x2="7.45" transform="translate(38.644 81.454)" fill="none" stroke="#ccc" stroke-linecap="round" stroke-linejoin="round" stroke-width="1.252"/>
  </g>
  <g id="Character--inject-86" transform="translate(89.256 25.538)">
    <ellipse id="Ellipse_70" data-name="Ellipse 70" cx="49.181" cy="8.196" rx="49.181" ry="8.196" transform="translate(0 198.291)" fill="#c2a3cc"/>
    <ellipse id="Ellipse_71" data-name="Ellipse 71" cx="49.181" cy="8.196" rx="49.181" ry="8.196" transform="translate(0 198.291)" fill="#fff" opacity="0.5"/>
    <path id="Tracé_1323" data-name="Tracé 1323" d="M282.958,162.995a45.769,45.769,0,0,1,4.173,33.3C282.3,215.174,268.9,237.018,268.9,237.018l-16.692-5.273s1.318-31.389,8.346-46.236S280.54,162.565,282.958,162.995Z" transform="translate(-229.529 -135.876)" fill="#263238" stroke="#263238" stroke-linecap="round" stroke-linejoin="round" stroke-width="1"/>
    <path id="Tracé_1324" data-name="Tracé 1324" d="M298.12,161.525a48.88,48.88,0,0,1,4.173,34.492C297.457,215.6,284.057,238.2,284.057,238.2l-16.692-5.514s1.318-32.5,8.346-47.885S295.717,161.126,298.12,161.525Z" transform="translate(-256.111 -135.515)" fill="#c2a3cc"/>
    <g id="Groupe_99" data-name="Groupe 99" transform="translate(11.254 25.997)" clip-path="url(#clip-path)">
      <path id="Tracé_1325" data-name="Tracé 1325" d="M294.681,173a43.335,43.335,0,0,1,3.7,30.59c-4.286,17.325-16.173,37.407-16.173,37.407L267.4,236.127s1.168-28.843,7.4-42.477S292.557,172.627,294.681,173Z" transform="translate(-263.315 -164.342)" opacity="0.29"/>
    </g>
    <path id="Tracé_1327" data-name="Tracé 1327" d="M298.12,161.525a48.88,48.88,0,0,1,4.173,34.492C297.457,215.6,284.057,238.2,284.057,238.2l-16.692-5.514s1.318-32.5,8.346-47.885S295.717,161.126,298.12,161.525Z" transform="translate(-256.111 -135.515)" fill="none" stroke="#263238" stroke-linecap="round" stroke-linejoin="round" stroke-width="1"/>
    <path id="Tracé_1328" data-name="Tracé 1328" d="M285.22,161.525a47.583,47.583,0,0,1,5.567,21.129,41.929,41.929,0,0,1-9.506-.678,39.449,39.449,0,0,1-13.86-5.273C274.448,166.549,283.269,161.171,285.22,161.525Z" transform="translate(-243.21 -135.514)" fill="#263238" stroke="#263238" stroke-linecap="round" stroke-linejoin="round" stroke-width="1"/>
    <path id="Tracé_1329" data-name="Tracé 1329" d="M291.523,251.19l18.116,6.275c-1.009,1.808-1.627,2.847-1.627,2.847l-16.692-5.5S291.38,253.465,291.523,251.19Z" transform="translate(-280.066 -157.641)" fill="#263238" stroke="#263238" stroke-linecap="round" stroke-linejoin="round" stroke-width="1"/>
    <path id="Tracé_1330" data-name="Tracé 1330" d="M213.135,388.33s6.327,4.6,11.5,6.026,1.725,4.309-2.3,4.309-10.644-1.439-13.807-1.439-6.026,1.152-7.194-1.725-.286-4.6-.286-4.6S209.1,388.616,213.135,388.33Z" transform="translate(-129.439 -191.477)" fill="#fff" stroke="#263238" stroke-linecap="round" stroke-linejoin="round" stroke-width="1"/>
    <path id="Tracé_1331" data-name="Tracé 1331" d="M207.906,397.1c4.994,0,7.1,1.582,12.233,1.974a10.184,10.184,0,0,0,6.84-1.695c.964,1.409-1.717,3.013-4.708,3.013-4.03,0-10.644-1.439-13.807-1.439s-6.026,1.152-7.194-1.725a8.2,8.2,0,0,1-.535-2.011A18.077,18.077,0,0,0,207.906,397.1Z" transform="translate(-129.37 -193.177)" fill="#fff" stroke="#263238" stroke-linecap="round" stroke-linejoin="round" stroke-width="1"/>
    <path id="Tracé_1332" data-name="Tracé 1332" d="M286.99,389.132s3.812,6.32,6.026,8.158,3.684,3.947,1.19,4.083-7.638-1.318-12.376-3.292-9.341-7.1-9.341-7.894,2.365-4.346,2.365-4.346S283.7,387.294,286.99,389.132Z" transform="translate(-251.752 -190.863)" fill="#fff" stroke="#263238" stroke-linecap="round" stroke-linejoin="round" stroke-width="1"/>
    <path id="Tracé_1333" data-name="Tracé 1333" d="M272.951,390a31.991,31.991,0,0,0,11.088,7.811,40.768,40.768,0,0,0,11.367,3.36c.233.693-.06,1.19-1.228,1.25-2.5.128-7.638-1.318-12.376-3.292s-9.34-7.1-9.34-7.894A3.705,3.705,0,0,1,272.951,390Z" transform="translate(-251.701 -191.89)" fill="#fff" stroke="#263238" stroke-linecap="round" stroke-linejoin="round" stroke-width="1"/>
    <path id="Tracé_1334" data-name="Tracé 1334" d="M259.5,258.883l3.45,11.216s12.685,27.321,15.246,34.515-3.45,19.849-4.03,27.871-.286,18.982-.286,18.982a2.93,2.93,0,0,1,1.152,2.011v3.766l-14.952,3.45s-.58-7.186,0-10.922,1.145-27.042,1.145-30.492a88.988,88.988,0,0,1,1.152-10.35l-10.93-14.38s3.164,16.964,2.011,20.127-11.216,15.246-13.8,17.544-15.819,20.135-15.819,20.135,2.011,1.725,2.011,3.164a25.462,25.462,0,0,1-.572,4.03l-13.521-3.766s1.725-5.461,4.6-12.655,18.982-32.5,18.982-32.5-12.941-32.217-12.941-39.4-.286-12.369-.286-12.369S244.551,264.924,259.5,258.883Z" transform="translate(-189.329 -159.533)" fill="#263238" stroke="#263238" stroke-linecap="round" stroke-linejoin="round" stroke-width="1"/>
    <path id="Tracé_1335" data-name="Tracé 1335" d="M250.03,298.7l-3.45-16.971,4.6-6.041" transform="translate(-187.908 -163.686)" fill="none" stroke="#fff" stroke-linecap="round" stroke-linejoin="round" stroke-width="1"/>
    <path id="Tracé_1336" data-name="Tracé 1336" d="M248.239,249.174a1.175,1.175,0,0,0,.625-2.26l-29.9-11.3a1.175,1.175,0,1,0-.829,2.2l29.89,11.3a1.235,1.235,0,0,0,.211.06Z" transform="translate(-164.378 -153.779)" fill="#263238" stroke="#263238" stroke-linecap="round" stroke-linejoin="round" stroke-width="1"/>
    <path id="Tracé_1337" data-name="Tracé 1337" d="M233.834,232.724s-3.209.964-11.819-3.894l-2.365,9.3s6.109,2.636,15.141,1.394Z" transform="translate(-151.231 -152.124)" fill="#fff"/>
    <g id="Groupe_100" data-name="Groupe 100" transform="translate(68.419 76.706)" clip-path="url(#clip-path-2)">
      <path id="Tracé_1338" data-name="Tracé 1338" d="M233.834,232.724s-3.209.964-11.819-3.894l-2.365,9.3s6.109,2.636,15.141,1.394Z" transform="translate(-219.65 -228.83)" opacity="0.15"/>
    </g>
    <path id="Tracé_1340" data-name="Tracé 1340" d="M233.834,232.724s-3.209.964-11.819-3.894l-2.365,9.3s6.109,2.636,15.141,1.394Z" transform="translate(-151.231 -152.124)" fill="none" stroke="#263238" stroke-linecap="round" stroke-linejoin="round" stroke-width="1"/>
    <path id="Tracé_1341" data-name="Tracé 1341" d="M213.688,243.973a1.943,1.943,0,0,0,1.868-1.439l4.6-17.325a1.948,1.948,0,0,0-3.766-.994l-4.6,17.325a1.928,1.928,0,0,0,1.371,2.365,1.883,1.883,0,0,0,.527.068Z" transform="translate(-130.693 -150.627)" fill="#c2a3cc" stroke="#263238" stroke-miterlimit="10" stroke-width="1"/>
    <path id="Tracé_1342" data-name="Tracé 1342" d="M221.056,229.24c2.2-.949,3.842,5.778,1.024,7.759-1.507,1.055-2.456-.949-2.6-2.26s-.1-3.586.648-4.663a2.343,2.343,0,0,1,.926-.836Z" transform="translate(-139.838 -152.203)" fill="#fff" stroke="#263238" stroke-linecap="round" stroke-linejoin="round" stroke-width="1"/>
    <path id="Tracé_1343" data-name="Tracé 1343" d="M216.233,242.589s3.262-.121,4.52.972.324,2.4-.422,2.26-4.211-.46-4.9-1.175S214.742,243.53,216.233,242.589Z" transform="translate(-134.3 -155.518)" fill="#fff" stroke="#263238" stroke-linecap="round" stroke-linejoin="round" stroke-width="1"/>
    <path id="Tracé_1344" data-name="Tracé 1344" d="M214.269,238.606s3.766-.211,5.22,1.092.331,2.93-.535,2.81-4.889-.482-5.672-1.348S212.491,239.781,214.269,238.606Z" transform="translate(-131.455 -154.533)" fill="#fff" stroke="#263238" stroke-linecap="round" stroke-linejoin="round" stroke-width="1"/>
    <path id="Tracé_1345" data-name="Tracé 1345" d="M211.633,234.456s4.595-.844,6.538.527.859,3.518-.218,3.51-6.026.166-7.118-.753S209.682,236.166,211.633,234.456Z" transform="translate(-128.472 -153.449)" fill="#fff" stroke="#263238" stroke-linecap="round" stroke-linejoin="round" stroke-width="1"/>
    <path id="Tracé_1346" data-name="Tracé 1346" d="M211.307,229.606s4.587-.844,6.538.527.851,3.51-.226,3.5-6.026.166-7.118-.753S209.356,231.346,211.307,229.606Z" transform="translate(-127.897 -152.252)" fill="#fff" stroke="#263238" stroke-linecap="round" stroke-linejoin="round" stroke-width="1"/>
    <path id="Tracé_1347" data-name="Tracé 1347" d="M270.557,184.047s5.634,10.35,4.565,19.028-4.565,17.325-5.476,21.152,1.981,12.806,1.371,15.517-13.393,4.113-24.353,4.572-15.819-2.441-16.436-5.484-.911-2.584-.452-8.218,5.476-35.456,8.519-41.242,17.5-10.8,19.939-11.427S267.386,178.269,270.557,184.047Z" transform="translate(-199.155 -139.528)" fill="#fff"/>
    <g id="Groupe_101" data-name="Groupe 101" transform="translate(30.396 38.251)" clip-path="url(#clip-path-3)">
      <path id="Tracé_1348" data-name="Tracé 1348" d="M263.22,195.361,269,204.4a12.289,12.289,0,0,1-1.763,7.533,63.94,63.94,0,0,1-4.271,5.552l11.058-5.778s-7.292,11.3-9.3,13.559-5.024,6.026-2.011,10.3c2.915,4.128,16.165,9.438,17.491,11.826-4.151.527-8.971.874-13.484,1.062-10.953.452-15.819-2.441-16.436-5.484s-.911-2.584-.452-8.218c.429-5.273,4.859-31.758,7.917-39.856C260.034,194.352,261.992,194.375,263.22,195.361Z" transform="translate(-249.61 -181.915)" opacity="0.15"/>
    </g>
    <path id="Tracé_1350" data-name="Tracé 1350" d="M270.557,184.047s5.634,10.35,4.565,19.028-4.565,17.325-5.476,21.152,1.981,12.806,1.371,15.517-13.393,4.113-24.353,4.572-15.819-2.441-16.436-5.484-.911-2.584-.452-8.218,5.476-35.456,8.519-41.242,17.5-10.8,19.939-11.427S267.386,178.269,270.557,184.047Z" transform="translate(-199.155 -139.528)" fill="none" stroke="#263238" stroke-linecap="round" stroke-linejoin="round" stroke-width="1"/>
    <path id="Tracé_1351" data-name="Tracé 1351" d="M241.527,173.78l10.96,13.845-5.823,8.218L237,177.72Z" transform="translate(-181.996 -138.542)" fill="#fff" stroke="#263238" stroke-linecap="round" stroke-linejoin="round" stroke-width="1"/>
    <path id="Tracé_1352" data-name="Tracé 1352" d="M235.924,190.94l.121,6.245-4.994-3Z" transform="translate(-161.071 -142.775)" fill="#fff" stroke="#263238" stroke-linecap="round" stroke-linejoin="round" stroke-width="1"/>
    <path id="Tracé_1353" data-name="Tracé 1353" d="M236.325,184.14l1.755,5.122-6.87,6.117Z" transform="translate(-163.227 -141.098)" fill="#fff" stroke="#263238" stroke-linecap="round" stroke-linejoin="round" stroke-width="1"/>
    <path id="Tracé_1354" data-name="Tracé 1354" d="M245.327,172.872s-5.574,15.3-7.171,14.817-7.97-11.3-8.286-13.386,1.913-7.013,1.913-7.013a42.236,42.236,0,0,1,8.768,3.186A52.037,52.037,0,0,1,245.327,172.872Z" transform="translate(-169.443 -136.94)" fill="#fff"/>
    <g id="Groupe_102" data-name="Groupe 102" transform="translate(60.397 30.35)" clip-path="url(#clip-path-4)">
      <path id="Tracé_1355" data-name="Tracé 1355" d="M241.542,170.484l.211.105a4.693,4.693,0,0,0,.572,1.228,7.34,7.34,0,0,0,3.247,3.051c-.045.121-.09.241-.143.369l-11.043,6.154c-1.778-2.96-3.367-6.026-3.525-7.058-.316-2.071,1.913-7.013,1.913-7.013A42.236,42.236,0,0,1,241.542,170.484Z" transform="translate(-230.83 -167.297)" fill="#c2a3cc"/>
      <path id="Tracé_1356" data-name="Tracé 1356" d="M241.542,170.484l.211.105a4.693,4.693,0,0,0,.572,1.228,7.34,7.34,0,0,0,3.247,3.051c-.045.121-.09.241-.143.369l-11.043,6.154c-1.778-2.96-3.367-6.026-3.525-7.058-.316-2.071,1.913-7.013,1.913-7.013A42.236,42.236,0,0,1,241.542,170.484Z" transform="translate(-230.83 -167.297)" fill="#fff" opacity="0.5"/>
    </g>
    <path id="Tracé_1358" data-name="Tracé 1358" d="M245.327,172.872s-5.574,15.3-7.171,14.817-7.97-11.3-8.286-13.386,1.913-7.013,1.913-7.013a42.236,42.236,0,0,1,8.768,3.186A52.037,52.037,0,0,1,245.327,172.872Z" transform="translate(-169.443 -136.94)" fill="none" stroke="#263238" stroke-linecap="round" stroke-linejoin="round" stroke-width="1"/>
    <path id="Tracé_1359" data-name="Tracé 1359" d="M251.793,211.36s-3.194,4.414-19.171,4.256l-2.893,4.263s12.632,2.742,21.3-4.565Z" transform="translate(-175.826 -147.814)" fill="#263238" stroke="#263238" stroke-linecap="round" stroke-linejoin="round" stroke-width="1"/>
    <path id="Tracé_1360" data-name="Tracé 1360" d="M270.5,181.86s5.017.911,7.45,10.651-3.345,22.523-12.474,26.025-13.853-2.742-13.853-2.742l1.371-3.345s3.194,6.237,11.111,2.893,10.96-11.533,10.35-19.638-7.917-11.864-7.917-11.864Z" transform="translate(-219.026 -140.535)" fill="#263238" stroke="#263238" stroke-linecap="round" stroke-linejoin="round" stroke-width="1"/>
    <path id="Tracé_1361" data-name="Tracé 1361" d="M297.092,254.883a1.288,1.288,0,0,0,.234-2.561l-55.554-19.54a1.3,1.3,0,0,0-.482,2.546l55.561,19.54a1.293,1.293,0,0,0,.241.015Z" transform="translate(-230.367 -153.094)" fill="#263238" stroke="#263238" stroke-linecap="round" stroke-linejoin="round" stroke-width="1"/>
    <path id="Tracé_1362" data-name="Tracé 1362" d="M237.059,251.407a2.162,2.162,0,0,0,2.087-1.6l5.1-19.307a2.162,2.162,0,1,0-4.173-1.107l-5.137,19.3a2.162,2.162,0,0,0,1.507,2.644A2.4,2.4,0,0,0,237.059,251.407Z" transform="translate(-172.248 -151.839)" fill="#c2a3cc" stroke="#263238" stroke-miterlimit="10" stroke-width="1"/>
    <path id="Tracé_1363" data-name="Tracé 1363" d="M232.791,242.781s6.7-5.167,8.67-6.538,6.546.452,8.068.452,3.5,1.507,3.194,2.591a3.864,3.864,0,0,1-1.507,1.823s1.07,1.83.158,3.2a4.572,4.572,0,0,0-.919,2.26A6.779,6.779,0,0,1,248.783,249c-.911.61-2.893.911-5.326.911s-6.7-1.672-6.7-1.672l-4.264-.151Z" transform="translate(-178.872 -153.827)" fill="#fff"/>
    <g id="Groupe_103" data-name="Groupe 103" transform="translate(53.625 81.905)" clip-path="url(#clip-path-5)">
      <path id="Tracé_1364" data-name="Tracé 1364" d="M242.381,249.559l-4.264-.151.06-1.047.648-3.1s7.284-4.52,10.3-4.271,4.768.226,5.024,4.776a6.832,6.832,0,0,1-1.951,5.273,21.256,21.256,0,0,1-3.126.211C246.645,251.231,242.381,249.559,242.381,249.559Z" transform="translate(-238.148 -237.026)" fill="#c2a3cc"/>
      <path id="Tracé_1365" data-name="Tracé 1365" d="M242.381,249.559l-4.264-.151.06-1.047.648-3.1s7.284-4.52,10.3-4.271,4.768.226,5.024,4.776a6.832,6.832,0,0,1-1.951,5.273,21.256,21.256,0,0,1-3.126.211C246.645,251.231,242.381,249.559,242.381,249.559Z" transform="translate(-238.148 -237.026)" fill="#fff" opacity="0.5"/>
    </g>
    <path id="Tracé_1367" data-name="Tracé 1367" d="M232.791,242.781s6.7-5.167,8.67-6.538,6.546.452,8.068.452,3.5,1.507,3.194,2.591a3.864,3.864,0,0,1-1.507,1.823s1.07,1.83.158,3.2a4.572,4.572,0,0,0-.919,2.26A6.779,6.779,0,0,1,248.783,249c-.911.61-2.893.911-5.326.911s-6.7-1.672-6.7-1.672l-4.264-.151Z" transform="translate(-178.872 -153.827)" fill="none" stroke="#263238" stroke-linecap="round" stroke-linejoin="round" stroke-width="1"/>
    <path id="Tracé_1368" data-name="Tracé 1368" d="M291.576,188.229s5.476,5.017,3.345,11.713-10.968,12.934-13.227,15.977a49.2,49.2,0,0,1-5.484,5.936s6.855,3.352,11.721,5.484a61.063,61.063,0,0,0,8.519,3.013l-.151,5.778s-16.738.753-24.5-2.26-13.393-6.847-13.393-11.412,9.725-13.077,14.907-21.295,8.979-12.482,14.146-13.242" transform="translate(-242.087 -142.03)" fill="#fff"/>
    <g id="Groupe_104" data-name="Groupe 104" transform="translate(16.323 45.89)" clip-path="url(#clip-path-6)">
      <path id="Tracé_1369" data-name="Tracé 1369" d="M282.563,234.368c-7.766-3.013-13.393-6.847-13.393-11.412s9.732-13.084,14.915-21.3c3.714-5.906,6.727-9.755,10.049-11.743-1.446,1.446-5.86,6.064-6.071,8.58-.249,3.013,12.308,1.763,10.049,3.269s-12.557,5.024-17.084,9.039-10.3,7.533-7.789,10.546,14.312,6.779,22.862,12.308a8.286,8.286,0,0,1,3.013,3.013C293.734,236.56,286.8,236.033,282.563,234.368Z" transform="translate(-269.178 -188.411)" opacity="0.15"/>
    </g>
    <path id="Tracé_1371" data-name="Tracé 1371" d="M291.576,188.229s5.476,5.017,3.345,11.713-10.968,12.934-13.227,15.977a49.2,49.2,0,0,1-5.484,5.936s6.855,3.352,11.721,5.484a61.063,61.063,0,0,0,8.519,3.013l-.151,5.778s-16.738.753-24.5-2.26-13.393-6.847-13.393-11.412,9.725-13.077,14.907-21.295,8.979-12.482,14.146-13.242" transform="translate(-242.087 -142.03)" fill="none" stroke="#263238" stroke-linecap="round" stroke-linejoin="round" stroke-width="1"/>
    <line id="Ligne_154" data-name="Ligne 154" x1="0.61" y2="6.697" transform="translate(50.552 87.433)" fill="none" stroke="#263238" stroke-linecap="round" stroke-linejoin="round" stroke-width="1"/>
    <path id="Tracé_1372" data-name="Tracé 1372" d="M294.269,231.5s-5.476-3.653-8.979-4.565" transform="translate(-260.153 -151.658)" fill="none" stroke="#263238" stroke-linecap="round" stroke-linejoin="round" stroke-width="1"/>
    <path id="Tracé_1373" data-name="Tracé 1373" d="M234.184,141.433a44.978,44.978,0,0,1,1.559,4.52,11.5,11.5,0,0,0,3.488,5.077c1.152.716,3.842,1.717,2.659,3.013a13.219,13.219,0,0,1-3.548,2.3s.927,5.348.339,8.429-2.757,3.6-4.723,3.571-9.386-.911-11.894-3.925-6.546-12.542-4.565-18.734S230.673,135.55,234.184,141.433Z" transform="translate(-156.604 -129.847)" fill="#fff"/>
    <g id="Groupe_105" data-name="Groupe 105" transform="translate(60.365 8.695)" clip-path="url(#clip-path-7)">
      <path id="Tracé_1374" data-name="Tracé 1374" d="M242.879,153.667c-1,4.022-3.013,9.544-1,12.565s3.608,3.149,3.608,3.149l-.5.271c-3.013-.4-7.661-1.461-9.544-3.721-2.508-3.013-6.546-12.542-4.565-18.734a7.954,7.954,0,0,1,1.386-2.516l8.354,1.7S243.888,149.644,242.879,153.667Z" transform="translate(-230.35 -140.057)" fill="#c2a3cc"/>
      <path id="Tracé_1375" data-name="Tracé 1375" d="M242.879,153.667c-1,4.022-3.013,9.544-1,12.565s3.608,3.149,3.608,3.149l-.5.271c-3.013-.4-7.661-1.461-9.544-3.721-2.508-3.013-6.546-12.542-4.565-18.734a7.954,7.954,0,0,1,1.386-2.516l8.354,1.7S243.888,149.644,242.879,153.667Z" transform="translate(-230.35 -140.057)" fill="#fff" opacity="0.5"/>
    </g>
    <path id="Tracé_1377" data-name="Tracé 1377" d="M234.184,141.433a44.978,44.978,0,0,1,1.559,4.52,11.5,11.5,0,0,0,3.488,5.077c1.152.716,3.842,1.717,2.659,3.013a13.219,13.219,0,0,1-3.548,2.3s.927,5.348.339,8.429-2.757,3.6-4.723,3.571-9.386-.911-11.894-3.925-6.546-12.542-4.565-18.734S230.673,135.55,234.184,141.433Z" transform="translate(-156.604 -129.847)" fill="none" stroke="#263238" stroke-linecap="round" stroke-linejoin="round" stroke-width="1"/>
    <path id="Tracé_1378" data-name="Tracé 1378" d="M234.716,171.45s4.52,3.887,7.985,4.52c0,0-6.026.859-12.3-4.316Z" transform="translate(-167.238 -137.967)" fill="#263238" stroke="#263238" stroke-linecap="round" stroke-linejoin="round" stroke-width="1"/>
    <path id="Tracé_1379" data-name="Tracé 1379" d="M232.018,148.99s-1.65-2.945-3.458.814" transform="translate(-155.169 -132.154)" fill="none" stroke="#263238" stroke-linecap="round" stroke-linejoin="round" stroke-width="1"/>
    <path id="Tracé_1380" data-name="Tracé 1380" d="M229.386,164.684s-2.96,1.348-5.326-.384" transform="translate(-149.147 -136.203)" fill="none" stroke="#263238" stroke-linecap="round" stroke-linejoin="round" stroke-width="1"/>
    <path id="Tracé_1381" data-name="Tracé 1381" d="M227.893,152.864c.173.753.55,1.265.851,1.19s.407-.716.234-1.446-.55-1.258-.851-1.19S227.719,152.134,227.893,152.864Z" transform="translate(-151.647 -133.023)" fill="#263238"/>
    <path id="Tracé_1382" data-name="Tracé 1382" d="M258.092,140.724s-12.3,3.375-12.565,5.732,1.906,7.329.753,12.339-7.977,6.463-13.672,4.52-9.793-12.429-9.039-21.092,9.574-13.717,16.474-15.02S257.421,130.894,258.092,140.724Z" transform="translate(-177.416 -126.999)" fill="#c2a3cc"/>
    <g id="Groupe_106" data-name="Groupe 106" transform="translate(46.064)" clip-path="url(#clip-path-8)">
      <path id="Tracé_1383" data-name="Tracé 1383" d="M244.239,136.508a18.829,18.829,0,0,1,3.5-.279,2.6,2.6,0,0,0-.753,1.785,3.013,3.013,0,0,0,6.026,0,2.319,2.319,0,0,0-.068-.565c3.088,1.552,5.273,4.414,7.533,7.872-2.787,1.077-5.356,2.35-5.476,3.412-.271,2.358,1.906,7.329.753,12.339s-7.977,6.463-13.672,4.52c-5.378-1.83-9.333-11.3-9.13-19.668C233.987,143.657,237.158,137.721,244.239,136.508Z" transform="translate(-232.986 -129.276)" opacity="0.29"/>
    </g>
    <path id="Tracé_1385" data-name="Tracé 1385" d="M258.092,140.724s-12.3,3.375-12.565,5.732,1.906,7.329.753,12.339-7.977,6.463-13.672,4.52-9.793-12.429-9.039-21.092,9.574-13.717,16.474-15.02S257.421,130.894,258.092,140.724Z" transform="translate(-177.416 -126.999)" fill="none" stroke="#263238" stroke-linecap="round" stroke-linejoin="round" stroke-width="1"/>
    <path id="Tracé_1386" data-name="Tracé 1386" d="M233.792,163.026c3.013-4.813-.9-12.052.9-14.131,1.507-1.71,10.7-5.009,14.086-6.184a15.072,15.072,0,0,1,.256,1.891s-12.3,3.375-12.565,5.732,1.906,7.329.753,12.339-7.977,6.463-13.672,4.52h-.075C227.518,167.387,231.819,166.182,233.792,163.026Z" transform="translate(-168.363 -130.876)" fill="#263238" stroke="#263238" stroke-linecap="round" stroke-linejoin="round" stroke-width="1"/>
  </g>
</svg>
