<svg xmlns="http://www.w3.org/2000/svg" width="52" height="52" viewBox="0 0 52 52">
  <g id="logo" transform="translate(-34.414 -34.414)">
    <path id="Tracé_17" data-name="Tracé 17" d="M60.414,85.414a25,25,0,1,0-25-25A25,25,0,0,0,60.414,85.414Z" fill="none" stroke="#c2a3cc" stroke-width="2"/>
    <path id="Tracé_18" data-name="Tracé 18" d="M69.778,71.115a7.322,7.322,0,0,0,.327,3.343,7.883,7.883,0,0,0,1.722,2.748,9.3,9.3,0,0,0,2.642,1.919,11.958,11.958,0,0,0,1.749.71,13.058,13.058,0,0,0,1.953.43,17.04,17.04,0,0,0,4.581-.043,19.138,19.138,0,0,0,2.356-.452,16.282,16.282,0,0,0,2.126-.691,11.194,11.194,0,0,0,3.488-2.116,5.683,5.683,0,0,0,.958-1.186,3.51,3.51,0,0,0,.455-1.134,4.091,4.091,0,0,0-.569-3.056A3.3,3.3,0,0,0,90.5,70.561a4.084,4.084,0,0,0-1.615-.513,6,6,0,0,0-2.3.231,5.538,5.538,0,0,0-1.819.844,7.459,7.459,0,0,0-1.679,1.92,19.773,19.773,0,0,0-1.281,2.33c-.4.828-.755,1.674-1.093,2.528q-.423,1.068-.8,2.152c-.143.412-.283.825-.415,1.241-.068.212-.145.422-.216.633-.208.611-.419,1.22-.642,1.825-.308.84-.634,1.674-.988,2.5A27.215,27.215,0,0,1,76.4,88.824c-.208.37-.428.734-.668,1.084l.117-.171a6.408,6.408,0,0,1-1.118,1.3l.206-.174a3.03,3.03,0,0,1-.39.28l.283-.167a2.239,2.239,0,0,1-.22.113l.346-.151a2.866,2.866,0,0,1-.271.1l.4-.127c-.093.03-.186.055-.281.075l.406-.088q-.152.032-.306.05l.375-.042a3.282,3.282,0,0,1-.371.019l.328,0a3.132,3.132,0,0,1-.494-.045l.266.047a3.072,3.072,0,0,1-.772-.246l.187.09a3.024,3.024,0,0,1-1.141-.96l.093.131a3.975,3.975,0,0,1-.656-2.623c0,.053-.01.106-.015.16a3.526,3.526,0,0,1,.615-1.621l-.117.171a5.39,5.39,0,0,1,.974-1.058l-.206.174a7.837,7.837,0,0,1,1.05-.738l-.283.167a10.222,10.222,0,0,1,1.077-.548l-.346.151a12.557,12.557,0,0,1,1.187-.447l-.4.127q.658-.21,1.334-.355l-.406.088a16.436,16.436,0,0,1,1.64-.267l-.375.042a17.431,17.431,0,0,1,2.08-.107l-.328,0a11.8,11.8,0,0,1,1.911.177l-.266-.047a11.088,11.088,0,0,1,2.832.9l-.187-.089a9.3,9.3,0,0,1,2.848,2.082,8.06,8.06,0,0,1,.608.753l-.093-.13A7.041,7.041,0,0,1,89.152,90.5a7.271,7.271,0,0,1-.017,1.144c0-.053.01-.106.015-.16-.006.065-.013.131-.021.2a.176.176,0,0,0,.031.225.291.291,0,0,0,.234.155,1.311,1.311,0,0,0,.43.049,2.26,2.26,0,0,0,.539-.04,3.819,3.819,0,0,0,1.148-.367l.283-.167a.884.884,0,0,0,.324-.345,7.329,7.329,0,0,0-.323-3.33,7.876,7.876,0,0,0-1.717-2.75,9.282,9.282,0,0,0-2.626-1.916,12,12,0,0,0-1.747-.714,13.021,13.021,0,0,0-1.951-.434,16.981,16.981,0,0,0-4.593.037,19.147,19.147,0,0,0-2.343.446,16.255,16.255,0,0,0-2.129.688,11.278,11.278,0,0,0-3.489,2.1,5.712,5.712,0,0,0-.967,1.183,3.521,3.521,0,0,0-.465,1.131,4.1,4.1,0,0,0,.543,3.056,3.316,3.316,0,0,0,1.047,1.033,4.077,4.077,0,0,0,1.611.53,4.724,4.724,0,0,0,.937.017,7.094,7.094,0,0,0,1.362-.232,5.628,5.628,0,0,0,1.863-.853,7.467,7.467,0,0,0,1.75-2A19.962,19.962,0,0,0,80.2,86.75c.4-.85.758-1.718,1.1-2.594.275-.713.535-1.431.784-2.153.125-.362.249-.724.374-1.086.085-.246.16-.5.242-.745q.316-.94.664-1.869c.309-.822.636-1.638.989-2.443a27.209,27.209,0,0,1,1.218-2.467c.2-.354.414-.7.643-1.038l-.117.171a6.346,6.346,0,0,1,1.1-1.276l-.206.174a2.814,2.814,0,0,1,.377-.271l-.283.167a2.076,2.076,0,0,1,.206-.106l-.346.152c.088-.038.178-.071.269-.1l-.4.127c.092-.029.186-.055.281-.075l-.406.088c.1-.022.2-.038.306-.05l-.375.041a3.183,3.183,0,0,1,.371-.018l-.328,0a3.191,3.191,0,0,1,.494.046l-.266-.047a3.074,3.074,0,0,1,.772.246l-.187-.089a3.025,3.025,0,0,1,1.141.96l-.093-.131a3.974,3.974,0,0,1,.656,2.624c.005-.053.01-.107.015-.16a3.525,3.525,0,0,1-.616,1.621l.117-.171a5.417,5.417,0,0,1-.974,1.058l.206-.174a7.845,7.845,0,0,1-1.05.738l.283-.167a10.342,10.342,0,0,1-1.077.548l.346-.151a12.664,12.664,0,0,1-1.187.446l.4-.127q-.658.21-1.335.355l.406-.088q-.812.175-1.64.267l.376-.042a17.6,17.6,0,0,1-2.08.107l.328,0a11.8,11.8,0,0,1-1.911-.177l.265.047a11.089,11.089,0,0,1-2.832-.9l.187.09a9.3,9.3,0,0,1-2.847-2.082,8,8,0,0,1-.608-.753l.093.131a7.039,7.039,0,0,1-1.3-3.593,7.228,7.228,0,0,1,.017-1.145c-.005.053-.01.106-.015.16.006-.065.013-.131.021-.2a.176.176,0,0,0-.032-.225.291.291,0,0,0-.233-.155,1.312,1.312,0,0,0-.43-.049,2.238,2.238,0,0,0-.539.04,3.815,3.815,0,0,0-1.148.367l-.283.167a.885.885,0,0,0-.323.345" transform="translate(-20.533 -20.736)" fill="#c2a3cc"/>
  </g>
</svg>
