<svg xmlns="http://www.w3.org/2000/svg" width="50" height="50" viewBox="0 0 50 50">
  <g id="note" transform="translate(-316 -287.068)">
    <path id="note-2" data-name="note" d="M10,10V60H48.678L60,48.678V10Zm1.667,1.667H58.333V47.5H47.5V58.333H11.667Zm12.5,14.167V27.5H47.5V25.833Zm0,5V32.5h20V30.833Zm0,5V37.5H47.5V35.833Zm0,5V42.5h20V40.833Zm25,8.333h7.988l-7.988,7.988Z" transform="translate(306 277.068)"/>
    <path id="dots" d="M16.833,15a.833.833,0,1,0,.833.833A.835.835,0,0,0,16.833,15Zm0,3.333a.833.833,0,1,0,.833.833A.835.835,0,0,0,16.833,18.333Zm0,3.333a.833.833,0,1,0,.833.833A.835.835,0,0,0,16.833,21.667Zm0,3.333a.833.833,0,1,0,.833.833A.835.835,0,0,0,16.833,25Zm0,3.333a.833.833,0,1,0,.833.833A.835.835,0,0,0,16.833,28.333Zm0,3.333a.833.833,0,1,0,.833.833A.835.835,0,0,0,16.833,31.667Zm0,3.333a.833.833,0,1,0,.833.833A.835.835,0,0,0,16.833,35Zm0,3.333a.833.833,0,1,0,.833.833A.835.835,0,0,0,16.833,38.333Zm0,3.333a.833.833,0,1,0,.833.833A.835.835,0,0,0,16.833,41.667Zm0,3.333a.833.833,0,1,0,.833.833A.835.835,0,0,0,16.833,45Zm0,3.333a.833.833,0,1,0,.833.833A.835.835,0,0,0,16.833,48.333Zm0,3.333a.833.833,0,1,0,.833.833A.835.835,0,0,0,16.833,51.667Zm0,3.333a.833.833,0,1,0,.833.833A.835.835,0,0,0,16.833,55Z" transform="translate(305 276.235)" fill="#c2a3cc"/>
  </g>
</svg>
