<svg xmlns="http://www.w3.org/2000/svg" width="130.55" height="43.595" viewBox="0 0 130.55 43.595">
  <g id="hello" transform="translate(-7.612 -7.999)">
    <path id="zig" d="M490,713.29c5.762,0,5.762,6.02,11.525,6.02s5.763-6.02,11.525-6.02,5.763,6.02,11.525,6.02,5.762-6.02,11.525-6.02,5.763,6.02,11.526,6.02,5.762-6.02,11.525-6.02,5.762,6.02,11.525,6.02,5.763-6.02,11.526-6.02,5.763,6.02,11.525,6.02,5.763-6.02,11.527-6.02,5.764,6.02,11.527,6.02" transform="translate(-481.138 -668.966)" fill="none" stroke="#c2a3cc" stroke-linecap="round" stroke-miterlimit="10" stroke-width="2.5"/>
    <path id="Tracé_4155" data-name="Tracé 4155" d="M3.867-35.605a1.423,1.423,0,0,1,.556-.185,1.7,1.7,0,0,1,.68.309,1.214,1.214,0,0,1,.618,1.112,24.038,24.038,0,0,1-.309,2.41,31.363,31.363,0,0,0-.247,3.892v2.039l4.757-.124q4.51-.124,5.746-.247l1.05-.124.062-4.14q.062-4.14.432-4.572a1.246,1.246,0,0,1,.865-.432,1.383,1.383,0,0,1,.927.494l.494.494-.062,5.993v2.78q0,3.892.124,6.982l.124,3.831q-.865.865-1.359.865-.741,0-.989-1.452a49.09,49.09,0,0,1-.432-4.912q-.124-3.151-.494-3.213h-.741q-2.039,0-6.271.154T5.1-23.434q-.062.062-.185,4.14-.062,4.016-.432,4.325a1.578,1.578,0,0,1-.9.247,1.127,1.127,0,0,1-.834-.309A5.978,5.978,0,0,1,2.508-17.5q0-3.151.062-6.055.124-7.291.34-9.484T3.867-35.605ZM36.86-33.443a3.353,3.353,0,0,0-2.471-.989,6.945,6.945,0,0,0-1.792.247,7.082,7.082,0,0,0-2.873,1.668,7.969,7.969,0,0,0-2.07,2.719.668.668,0,0,0,.124.865,5.837,5.837,0,0,0,2.842.432q.185,0,.587-.031t.587-.031a7.049,7.049,0,0,0,2.9-.741q2.842-1.421,2.842-2.78A1.958,1.958,0,0,0,36.86-33.443Zm-6.178,7.6a24,24,0,0,1-4.2-.618l.124,1.606a6.473,6.473,0,0,0,.618,2.657A8.228,8.228,0,0,0,32.1-18.12a7.183,7.183,0,0,0,2.286.371,11.486,11.486,0,0,0,4.757-1.236,8.188,8.188,0,0,1,1.483-.556,1.423,1.423,0,0,1,.556.185.951.951,0,0,1,.618.865q0,1.174-1.483,1.854a13.357,13.357,0,0,1-6.055,1.421,10.1,10.1,0,0,1-3.645-.618,10.986,10.986,0,0,1-5-3.831,7.886,7.886,0,0,1-1.3-2.5,12.783,12.783,0,0,1-.309-3.182,11.389,11.389,0,0,1,.618-3.954q2.348-6.673,8.032-7.661a10.07,10.07,0,0,1,1.3-.124,7.081,7.081,0,0,1,4.356,1.359,4.317,4.317,0,0,1,1.823,3.645A4.746,4.746,0,0,1,38.343-28.5,10.769,10.769,0,0,1,30.682-25.843Zm17.485-10.5a1.06,1.06,0,0,1,.8-.432,3.418,3.418,0,0,1,1.3.68l-.371,3.46a99.767,99.767,0,0,0-.989,11.368,6.06,6.06,0,0,0,.185,1.915q.432,1.05,2.41,1.421a7.564,7.564,0,0,0,1.174.124,21.534,21.534,0,0,0,3.151-.309q2.595-.371,2.966-.371a1.253,1.253,0,0,1,.68.247,1.186,1.186,0,0,1,.371.865,1.3,1.3,0,0,1-.494,1.112,8.848,8.848,0,0,1-2.657.68,23.8,23.8,0,0,1-3.831.371q-4.51,0-6.117-2.966a9.689,9.689,0,0,1-.371-3.522,94.828,94.828,0,0,1,1.112-12.419A4.453,4.453,0,0,1,48.167-36.347Zm18.041,0a1.06,1.06,0,0,1,.8-.432,3.418,3.418,0,0,1,1.3.68l-.371,3.46a99.768,99.768,0,0,0-.989,11.368,6.06,6.06,0,0,0,.185,1.915q.432,1.05,2.41,1.421a7.564,7.564,0,0,0,1.174.124,21.534,21.534,0,0,0,3.151-.309q2.595-.371,2.966-.371a1.253,1.253,0,0,1,.68.247,1.186,1.186,0,0,1,.371.865,1.3,1.3,0,0,1-.494,1.112,8.848,8.848,0,0,1-2.657.68,23.8,23.8,0,0,1-3.831.371q-4.51,0-6.117-2.966a9.689,9.689,0,0,1-.371-3.522,94.829,94.829,0,0,1,1.112-12.419A4.453,4.453,0,0,1,66.208-36.347Zm32.5,6.426a5.984,5.984,0,0,0-5.561-2.9,7.642,7.642,0,0,0-5.622,2.286,7.671,7.671,0,0,0-2.348,5.622,7.185,7.185,0,0,0,.989,3.676,6.323,6.323,0,0,0,2.78,2.564,7.356,7.356,0,0,0,2.966.68,7.74,7.74,0,0,0,3.584-.927,7.853,7.853,0,0,0,3.058-3.027,8.263,8.263,0,0,0,1.143-4.2A7.466,7.466,0,0,0,98.707-29.921ZM85.979-32.639a10.292,10.292,0,0,1,7.291-2.9,9.269,9.269,0,0,1,4.2.989,9.322,9.322,0,0,1,4.449,4.943,11.706,11.706,0,0,1,.433,3.892,9.984,9.984,0,0,1-.124,1.977,10.114,10.114,0,0,1-2.749,5,11.112,11.112,0,0,1-4.974,3.089,10.719,10.719,0,0,1-2.533.247,9.183,9.183,0,0,1-6.178-2.224,9.248,9.248,0,0,1-3.151-5.808,13.11,13.11,0,0,1-.124-1.483A10.3,10.3,0,0,1,85.979-32.639Zm34.352,9.577a1.226,1.226,0,0,1,.556-.124,1.785,1.785,0,0,1,1.483.618,2.094,2.094,0,0,1,.432,1.421,1.633,1.633,0,0,1-.494,1.3,1.883,1.883,0,0,1-1.174.432,1.818,1.818,0,0,1-1.359-.68,2.263,2.263,0,0,1-.618-1.421A1.634,1.634,0,0,1,120.332-23.063Zm-.927-7.97a1.236,1.236,0,0,1,1.05-.494,2.339,2.339,0,0,1,1.452.556,2.1,2.1,0,0,1,.834,1.359.508.508,0,0,0,.031.154.508.508,0,0,1,.031.154,1.376,1.376,0,0,1-.556,1.081,1.965,1.965,0,0,1-1.3.463,1.973,1.973,0,0,1-1.359-.494,1.725,1.725,0,0,1-.556-1.359A2.177,2.177,0,0,1,119.4-31.033Zm8.9-5.375a1.927,1.927,0,0,1,1.792.124q.618.556,1.39,3.769a36.127,36.127,0,0,1,.958,5.808,13.785,13.785,0,0,1,.062,1.545,23.423,23.423,0,0,1-1.3,7.908q-1.3,3.645-2.719,3.645a1.122,1.122,0,0,1-.8-.371,1.186,1.186,0,0,1-.371-.865,4.286,4.286,0,0,1,.556-1.606,19.9,19.9,0,0,0,1.854-8.773,10.65,10.65,0,0,0-.062-1.359A22.8,22.8,0,0,0,128.3-33.2a8.949,8.949,0,0,1-.556-2.286A.856.856,0,0,1,128.3-36.408Z" transform="translate(5.659 45.087)"/>
  </g>
</svg>
