<svg xmlns="http://www.w3.org/2000/svg" width="22" height="22" viewBox="0 0 22 22">
  <path id="linkedin" d="M5.444,3A2.444,2.444,0,0,0,3,5.444V22.556A2.444,2.444,0,0,0,5.444,25H22.556A2.444,2.444,0,0,0,25,22.556V5.444A2.444,2.444,0,0,0,22.556,3Zm0,2.444H22.556V22.556H5.444Zm3.4,1.609A1.5,1.5,0,0,0,7.166,8.521,1.459,1.459,0,0,0,8.736,9.987a1.493,1.493,0,0,0,1.676-1.466A1.461,1.461,0,0,0,8.841,7.053Zm-1.592,4.5v8.556h3.084V11.556Zm5.629,0v8.556h3.084V15.435c0-1.392.993-1.592,1.291-1.592s1.1.3,1.1,1.592v4.676h2.984V15.435c0-2.685-1.193-3.879-2.686-3.879a2.789,2.789,0,0,0-2.686,1.194V11.556Z" transform="translate(-3 -3)" fill="#263238"/>
</svg>
