<svg id="brush" xmlns="http://www.w3.org/2000/svg" width="51.535" height="50" viewBox="0 0 51.535 50">
  <path id="brush-2" data-name="brush" d="M49.2,7.8,43.805,15.55a1.534,1.534,0,0,0-.637-.16,1.581,1.581,0,0,0-.309.029,1.552,1.552,0,0,0-1.02.685l0,0L31.384,32.881l-.043,0a9.968,9.968,0,0,0-8.152,4.2c-1.691,2.376-1.678,5.64-1.973,9.093-.286,3.341-.808,6.866-2.959,10.071H7V57.8H18.683a.777.777,0,0,0,.128-.011,68.8,68.8,0,0,0,10.95-2.5c3.89-1.329,7.609-3.3,9.7-6.533a10.562,10.562,0,0,0,1.267-9.18L53.388,24.023l0,0a1.57,1.57,0,0,0-.087-2.038l5.232-7.517-1.28-.889-5.219,7.5-6.92-4.681,5.359-7.7Zm-6.045,9.141.008.006,9.013,6.1v0l-12.291,15.1a.785.785,0,0,0-.167-.046l-6.74-4.828ZM31.338,34.437a4.736,4.736,0,0,1,.5.021.718.718,0,0,0,.129.009l7.063,5.059a8.889,8.889,0,0,1-.875,8.387c-1.783,2.755-5.17,4.632-8.9,5.905a58.818,58.818,0,0,1-9.072,2.139,23.473,23.473,0,0,0,2.583-9.651c.3-3.517.418-6.535,1.69-8.322A8.4,8.4,0,0,1,31.338,34.437Z" transform="translate(-7 -7.803)"/>
  <g id="dots" transform="translate(20.348 12.615)">
    <circle id="Ellipse_30" data-name="Ellipse 30" cx="0.779" cy="0.779" r="0.779" transform="translate(13.921)" fill="#c2a3cc"/>
    <circle id="Ellipse_31" data-name="Ellipse 31" cx="0.779" cy="0.779" r="0.779" transform="translate(16.258 1.558)" fill="#c2a3cc"/>
    <circle id="Ellipse_32" data-name="Ellipse 32" cx="0.779" cy="0.779" r="0.779" transform="translate(18.595 3.115)" fill="#c2a3cc"/>
    <circle id="Ellipse_33" data-name="Ellipse 33" cx="0.779" cy="0.779" r="0.779" transform="translate(20.893 4.673)" fill="#c2a3cc"/>
    <path id="Tracé_12" data-name="Tracé 12" d="M44.787,51.83a.783.783,0,0,0-.024,1.565h.009a.783.783,0,0,0,.016-1.565Z" transform="translate(-35.53 -30.155)" fill="#c2a3cc"/>
    <path id="Tracé_13" data-name="Tracé 13" d="M43.791,55.657a.781.781,0,0,0-.466,1.457.814.814,0,0,0,.375.094.8.8,0,0,0,.685-.389v-.007a.781.781,0,0,0-.3-1.061A.822.822,0,0,0,43.791,55.657Z" transform="translate(-35.293 -31)" fill="#c2a3cc"/>
    <path id="Tracé_14" data-name="Tracé 14" d="M41.153,58.625a.779.779,0,1,0-.1,1.551.778.778,0,0,0,.615-1.253A.776.776,0,0,0,41.153,58.625Z" transform="translate(-34.707 -31.656)" fill="#c2a3cc"/>
    <path id="Tracé_15" data-name="Tracé 15" d="M37.584,60.678a.787.787,0,0,0-.3.072h.009a.78.78,0,0,0,.335,1.488.7.7,0,0,0,.327-.078.778.778,0,0,0-.37-1.481Z" transform="translate(-33.948 -32.111)" fill="#c2a3cc"/>
    <path id="Tracé_16" data-name="Tracé 16" d="M33.965,62.159a.753.753,0,0,0-.305.04.767.767,0,0,0-.491.981.776.776,0,0,0,.741.537.859.859,0,0,0,.24-.04V63.67a.777.777,0,0,0-.184-1.511Z" transform="translate(-33.126 -32.438)" fill="#c2a3cc"/>
  </g>
</svg>
